<svg width="1440" height="954" viewBox="0 0 1440 954" fill="none" xmlns="http://www.w3.org/2000/svg">
<rect width="1440" height="955.526" transform="translate(0 -2)" fill="white"/>
<rect width="1440" height="955.526" transform="translate(0 -2)" fill="url(#paint0_radial_37_53)" fill-opacity="0.15"/>
<path fill-rule="evenodd" clip-rule="evenodd" d="M98.9817 107.43V-0.256531H99.9817V107.43H223.334V-0.256531H224.334V107.43H347.687V-0.256531H348.687V107.43H472.039V-0.256531H473.039V107.43H596.391V-0.256531H597.391V107.43H720.743V-0.256531H721.743V107.43H845.096V-0.256531H846.096V107.43H969.448V-0.256531H970.448V107.43H1093.8V-0.256531H1094.8V107.43H1218.15V-0.256531H1219.15V107.43H1342.51V-0.256531H1343.51V107.43H1440V108.43H1343.51V231.782H1440V232.782H1343.51V356.135H1440V357.135H1343.51V480.487H1440V481.487H1343.51V604.839H1440V605.839H1343.51V729.192H1440V730.192H1343.51V856.031H1440V857.031H1343.51V953.526H1342.51V857.031L1219.15 857.031V953.526H1218.15V857.031H1094.8V953.526H1093.8V857.031L970.448 857.031V953.526H969.448V857.031H846.096V953.526H845.096V857.031H721.743V953.526H720.743V857.031H597.391V953.526H596.391V857.031H473.039V953.526H472.039V857.031H348.687V953.526H347.687V857.031L224.334 857.031V953.526H223.334V857.031H99.9817V953.526H98.9817V857.031H0V856.031H98.9817V730.192H0V729.192H98.9817V605.839H0V604.839H98.9817V481.487H0V480.487H98.9817V357.135H0V356.135H98.9817V232.782H0V231.782H98.9817V108.43H0V107.43H98.9817ZM1342.51 856.031L1219.15 856.031V730.192L1342.51 730.192V856.031ZM1342.51 729.192L1219.15 729.192V605.839H1342.51V729.192ZM1342.51 604.839H1219.15V481.487H1342.51V604.839ZM1342.51 480.487H1219.15V357.135H1342.51V480.487ZM1342.51 356.135H1219.15V232.782H1342.51V356.135ZM1342.51 231.782H1219.15V108.43H1342.51V231.782ZM969.448 108.43H846.096V231.782H969.448V108.43ZM845.096 108.43V231.782H721.743V108.43H845.096ZM969.448 232.782H846.096V356.135H969.448V232.782ZM845.096 232.782V356.135H721.743V232.782H845.096ZM969.448 357.135H846.096V480.487H969.448V357.135ZM845.096 357.135V480.487H721.743V357.135H845.096ZM969.448 481.487H846.096V604.839H969.448V481.487ZM845.096 481.487V604.839H721.743V481.487H845.096ZM969.448 605.839H846.096V729.192H969.448V605.839ZM845.096 605.839V729.192H721.743V605.839H845.096ZM969.448 730.192H846.096V856.031H969.448V730.192ZM845.096 730.192V856.031H721.743V730.192H845.096ZM1218.15 856.031H1094.8V730.192H1218.15V856.031ZM1218.15 729.192H1094.8V605.839H1218.15V729.192ZM1218.15 604.839H1094.8V481.487H1218.15V604.839ZM1218.15 480.487H1094.8V357.135H1218.15V480.487ZM1218.15 356.135H1094.8V232.782H1218.15V356.135ZM1218.15 231.782H1094.8V108.43H1218.15V231.782ZM720.743 108.43V231.782H597.391V108.43H720.743ZM720.743 232.782V356.135H597.391V232.782H720.743ZM720.743 357.135V480.487H597.391V357.135H720.743ZM720.743 481.487V604.839H597.391V481.487H720.743ZM720.743 605.839V729.192H597.391V605.839H720.743ZM720.743 730.192V856.031H597.391V730.192H720.743ZM1093.8 856.031L970.448 856.031V730.192H1093.8V856.031ZM1093.8 729.192H970.448V605.839H1093.8V729.192ZM1093.8 604.839H970.448V481.487H1093.8V604.839ZM1093.8 480.487H970.448V357.135H1093.8V480.487ZM1093.8 356.135H970.448V232.782H1093.8V356.135ZM1093.8 231.782H970.448V108.43H1093.8V231.782ZM596.391 108.43V231.782H473.039V108.43H596.391ZM596.391 232.782V356.135H473.039V232.782H596.391ZM596.391 357.135V480.487H473.039V357.135H596.391ZM596.391 481.487V604.839H473.039V481.487H596.391ZM596.391 605.839V729.192H473.039V605.839H596.391ZM596.391 730.192V856.031H473.039V730.192H596.391ZM472.039 231.782V108.43H348.687V231.782H472.039ZM472.039 356.135V232.782H348.687V356.135H472.039ZM472.039 480.487V357.135H348.687V480.487H472.039ZM472.039 604.839V481.487H348.687V604.839H472.039ZM472.039 729.192V605.839H348.687V729.192H472.039ZM472.039 856.031V730.192H348.687V856.031H472.039ZM347.687 856.031L224.334 856.031V730.192H347.687V856.031ZM347.687 729.192H224.334V605.839H347.687V729.192ZM347.687 604.839H224.334V481.487H347.687V604.839ZM347.687 480.487H224.334V357.135H347.687V480.487ZM347.687 356.135H224.334V232.782H347.687V356.135ZM347.687 231.782H224.334V108.43H347.687V231.782ZM223.334 231.782V108.43H99.9817V231.782H223.334ZM223.334 356.135V232.782H99.9817V356.135H223.334ZM223.334 480.487V357.135H99.9817V480.487H223.334ZM223.334 604.839V481.487H99.9817V604.839H223.334ZM223.334 729.192V605.839H99.9817V729.192H223.334ZM223.334 856.031V730.192H99.9817V856.031H223.334ZM0 -0.999817L1440 -0.999878V-1.99988L0 -1.99982V-0.999817Z" fill="url(#paint1_linear_37_53)" fill-opacity="0.2"/>
<defs>
<radialGradient id="paint0_radial_37_53" cx="0" cy="0" r="1" gradientUnits="userSpaceOnUse" gradientTransform="translate(720 4.76318e-05) rotate(90) scale(558.512 581)">
<stop stop-color="#219653"/>
<stop offset="0.5" stop-color="#27AE60"/>
<stop offset="1" stop-color="#6FCF97" stop-opacity="0.44"/>
</radialGradient>
<linearGradient id="paint1_linear_37_53" x1="727.461" y1="850.394" x2="718.77" y2="-3.24253" gradientUnits="userSpaceOnUse">
<stop stop-opacity="0"/>
<stop offset="1" stop-opacity="0.52"/>
</linearGradient>
</defs>
</svg>
