<svg width="39" height="42" viewBox="0 0 39 42" fill="none" xmlns="http://www.w3.org/2000/svg">
<path d="M37.72 14.6461L21.9858 21.3483L15.2425 12.6734L13.7724 10.7821C13.5834 10.539 13.5023 10.2291 13.548 9.92463L14.6003 2.91741C18.0648 1.34195 19.9814 0.509654 21.7692 0.0345294C22.1068 -0.0551847 22.4674 0.0338192 22.7367 0.256234C29.9128 6.18232 33.4392 9.24202 37.72 14.6461Z" fill="#8FD694"/>
<path d="M21.9858 21.3483L37.72 14.6461C38.6608 22.4315 38.9342 26.7818 38.9998 34.0826C39.003 34.4334 38.8412 34.7677 38.5631 34.9816C34.7496 37.9152 32.3413 39.4733 27.9262 41.9015L23.1618 35.8065C23.0232 35.6292 22.9409 35.4144 22.9257 35.1899L22.6077 30.5078L21.9858 21.3483Z" fill="#77AD78"/>
<path d="M27.9262 41.9015C20.5333 41.753 16.7076 41.2975 10.5865 39.6674L22.6077 30.5078L22.9257 35.1899C22.9409 35.4144 23.0232 35.6292 23.1618 35.8065L27.9262 41.9015Z" fill="#504B43"/>
<path d="M15.2425 12.6734L21.9858 21.3483L22.6077 30.5078L10.5865 39.6674C5.28399 37.2999 3.01346 35.645 0.311069 32.0717L15.2425 12.6734Z" fill="#6F8F72"/>
<path d="M14.6003 2.91741L13.548 9.92463C13.5023 10.2291 13.5834 10.539 13.7724 10.7821L15.2425 12.6734L0.311069 32.0717C-0.119564 24.4605 -0.233234 20.294 0.890705 12.6115C0.930328 12.3407 1.06952 12.0905 1.27938 11.9147C5.79364 8.13464 9.01459 5.96177 14.6003 2.91741Z" fill="#7DBA84"/>
</svg>
