<svg width="41" height="77" viewBox="0 0 41 77" fill="none" xmlns="http://www.w3.org/2000/svg">
<path d="M38.7155 14.6461L22.9812 21.3483L16.238 12.6734L14.7678 10.7821C14.5789 10.539 14.4978 10.2291 14.5435 9.92463L15.5958 2.91741C19.0603 1.34195 20.9769 0.509654 22.7647 0.0345294C23.1022 -0.0551847 23.4628 0.0338192 23.7322 0.256234C30.9083 6.18232 34.4347 9.24202 38.7155 14.6461Z" fill="#8FD694"/>
<path d="M22.9812 21.3483L38.7155 14.6461C39.6563 22.4315 39.9297 26.7818 39.9953 34.0826C39.9985 34.4334 39.8366 34.7677 39.5586 34.9816C35.7451 37.9152 33.3368 39.4733 28.9217 41.9015L24.1573 35.8065C24.0187 35.6292 23.9364 35.4144 23.9212 35.1899L23.6032 30.5078L22.9812 21.3483Z" fill="#77AD78"/>
<path d="M28.9217 41.9015C21.5288 41.753 17.7031 41.2975 11.582 39.6674L23.6032 30.5078L23.9212 35.1899C23.9364 35.4144 24.0187 35.6292 24.1573 35.8065L28.9217 41.9015Z" fill="#504B43"/>
<path d="M16.238 12.6734L22.9812 21.3483L23.6032 30.5078L11.582 39.6674C6.27947 37.2999 4.00895 35.645 1.30655 32.0717L16.238 12.6734Z" fill="#6F8F72"/>
<path d="M15.5958 2.91741L14.5435 9.92463C14.4978 10.2291 14.5789 10.539 14.7678 10.7821L16.238 12.6734L1.30655 32.0717C0.875919 24.4605 0.762249 20.294 1.88619 12.6115C1.92581 12.3407 2.06501 12.0905 2.27486 11.9147C6.78913 8.13464 10.0101 5.96177 15.5958 2.91741Z" fill="#7DBA84"/>
<path d="M7.85317 71.91C7.84181 70.6895 7.63735 69.6071 7.23978 68.663C6.84222 67.7188 6.26291 66.93 5.50185 66.2968C4.7408 65.652 3.80936 65.1971 2.70754 64.9323L3.33796 61.6853C4.87143 62.0422 6.18907 62.6985 7.29089 63.6542C8.40408 64.5984 9.26736 65.7729 9.88075 67.1776C10.4941 68.5823 10.8065 70.1598 10.8179 71.91H7.85317ZM1.4978 71.91V68.4211H9.7274V71.91H1.4978Z" fill="#504B43"/>
<path d="M16.431 60.6404C16.1129 60.6404 15.8119 60.5598 15.5279 60.3986C15.2553 60.2374 15.0338 60.0243 14.8634 59.7595C14.6931 59.4947 14.6079 59.2068 14.6079 58.8959V57.6351H16.0732V58.775C16.0732 58.9247 16.1129 59.0456 16.1925 59.1377C16.272 59.2299 16.3515 59.2759 16.431 59.2759C16.5219 59.2759 16.6127 59.2126 16.7036 59.0859C16.8058 58.9478 16.857 58.7463 16.857 58.4814C16.857 58.2972 16.8342 58.1015 16.7888 57.8942C16.7434 57.6869 16.6809 57.5085 16.6014 57.3588L17.9133 56.7543C18.0383 56.9846 18.1405 57.2609 18.22 57.5833C18.2995 57.9057 18.3393 58.2051 18.3393 58.4814C18.3393 58.8729 18.2541 59.2356 18.0837 59.5695C17.9133 59.9034 17.6805 60.1683 17.3851 60.364C17.1012 60.5482 16.7831 60.6404 16.431 60.6404ZM14.2501 60.6404C13.8979 60.6404 13.5742 60.5482 13.2789 60.364C12.9949 60.1683 12.7677 59.9034 12.5973 59.5695C12.4269 59.2356 12.3417 58.8729 12.3417 58.4814C12.3417 58.2051 12.3815 57.9057 12.461 57.5833C12.5405 57.2609 12.6428 56.9846 12.7677 56.7543L14.0797 57.3588C14.0002 57.5085 13.932 57.6869 13.8752 57.8942C13.8298 58.1015 13.8071 58.2972 13.8071 58.4814C13.8071 58.7463 13.8582 58.9478 13.9604 59.0859C14.0626 59.2126 14.1592 59.2759 14.2501 59.2759C14.3182 59.2759 14.392 59.2299 14.4716 59.1377C14.5624 59.0456 14.6079 58.9247 14.6079 58.775V57.6351H16.0732V58.8959C16.0732 59.2068 15.988 59.4947 15.8176 59.7595C15.6472 60.0243 15.42 60.2374 15.1361 60.3986C14.8634 60.5598 14.5681 60.6404 14.2501 60.6404Z" fill="#504B43"/>
<path d="M16.5163 71.91V68.4211H19.1573V71.91H16.5163ZM11.967 73.5853C12.5577 73.5623 13.0121 73.4932 13.3301 73.3781C13.6595 73.2629 13.8867 73.096 14.0117 72.8772C14.148 72.6699 14.2161 72.4051 14.2161 72.0827V62.8425H17.1808V72.0827C17.1808 73.0269 16.9877 73.8501 16.6015 74.5525C16.2267 75.2549 15.6928 75.8076 14.9999 76.2106C14.307 76.6136 13.4778 76.8439 12.5123 76.9014L11.967 73.5853ZM19.1573 71.91V68.4211C19.2482 68.4211 19.3277 68.5823 19.3958 68.9048C19.464 69.2156 19.4981 69.6302 19.4981 70.1483C19.4981 70.678 19.464 71.104 19.3958 71.4264C19.3277 71.7488 19.2482 71.91 19.1573 71.91Z" fill="#504B43"/>
<path d="M19.4959 71.91V68.4211C19.9503 68.4211 20.3365 68.3578 20.6545 68.2312C20.984 68.1045 21.2906 67.8972 21.5746 67.6094C21.8586 67.31 22.1596 66.9243 22.4777 66.4522C22.773 66.0377 23.091 65.6174 23.4318 65.1914C23.7726 64.7654 24.1531 64.3739 24.5734 64.0169C24.9937 63.6485 25.4594 63.3549 25.9706 63.1361C26.4931 62.9173 27.0837 62.8079 27.7426 62.8079C28.39 62.8079 28.9693 62.9461 29.4805 63.2224C29.9916 63.4988 30.4233 63.8845 30.7754 64.3796C31.1389 64.8632 31.4115 65.4389 31.5933 66.1068C31.7864 66.7746 31.8829 67.5058 31.8829 68.3002C31.8829 68.9681 31.8034 69.6762 31.6444 70.4246C31.4854 71.1616 31.2639 71.8409 30.9799 72.4627L28.1174 71.3055C28.3787 70.8449 28.5774 70.3613 28.7138 69.8547C28.8501 69.3365 28.9182 68.8184 28.9182 68.3002C28.9182 67.5864 28.8103 67.0682 28.5945 66.7458C28.3787 66.4119 28.0777 66.2449 27.6914 66.2449C27.4302 66.2449 27.1462 66.3313 26.8395 66.504C26.5442 66.6652 26.2318 66.9128 25.9024 67.2467C25.573 67.5806 25.2265 68.0066 24.8631 68.5248C24.3178 69.3193 23.7783 69.9641 23.2444 70.4592C22.7219 70.9543 22.1596 71.3228 21.5576 71.5646C20.9669 71.7948 20.2797 71.91 19.4959 71.91ZM30.8095 68.9738L30.9799 72.4627C29.8099 72.5317 28.7933 72.5202 27.93 72.4281C27.0781 72.3475 26.3284 72.1978 25.6809 71.9791C25.0448 71.7603 24.4768 71.4782 23.9771 71.1328C23.4773 70.7873 23.0115 70.3843 22.5799 69.9238L24.5052 67.8685C24.8801 68.2599 25.3458 68.5478 25.9024 68.732C26.4704 68.9048 27.1576 69.0026 27.9641 69.0257C28.7706 69.0487 29.719 69.0314 30.8095 68.9738ZM19.4959 71.91C19.3937 71.91 19.3142 71.7488 19.2574 71.4264C19.1892 71.104 19.1552 70.678 19.1552 70.1483C19.1552 69.6302 19.1892 69.2156 19.2574 68.9048C19.3142 68.5823 19.3937 68.4211 19.4959 68.4211V71.91Z" fill="#504B43"/>
<path d="M35.8175 55.7374C35.4994 55.7374 35.1189 55.7029 34.6759 55.6338C34.2443 55.5532 33.8126 55.4438 33.381 55.3056L33.8581 53.9067C34.1647 54.0103 34.4942 54.0966 34.8463 54.1657C35.1984 54.2233 35.5165 54.2521 35.8004 54.2521C35.9027 54.2521 35.9992 54.2463 36.0901 54.2348C36.181 54.2233 36.2718 54.2118 36.3627 54.2003C36.2037 53.9815 36.0787 53.757 35.9879 53.5267C35.897 53.2964 35.8516 53.0546 35.8516 52.8013C35.8516 52.4559 35.9311 52.1392 36.0901 51.8514C36.2605 51.5635 36.4877 51.3332 36.7716 51.1605C37.0556 50.9878 37.368 50.9014 37.7088 50.9014C38.2199 50.9014 38.6459 51.0799 38.9866 51.4368C39.3274 51.7938 39.4978 52.2544 39.4978 52.8186C39.4978 53.3712 39.3217 53.8721 38.9696 54.3212C38.6175 54.7702 38.1631 55.1214 37.6065 55.3747C37.0499 55.6165 36.4536 55.7374 35.8175 55.7374ZM37.7428 53.4921C37.8337 53.3885 37.9019 53.2791 37.9473 53.164C37.9927 53.0373 38.0154 52.9107 38.0154 52.784C38.0154 52.6574 37.9871 52.5652 37.9303 52.5077C37.8848 52.4386 37.8167 52.404 37.7258 52.404C37.6236 52.404 37.527 52.4386 37.4361 52.5077C37.3566 52.5768 37.3169 52.6746 37.3169 52.8013C37.3169 52.9164 37.351 53.0316 37.4191 53.1467C37.4986 53.2503 37.6065 53.3655 37.7428 53.4921Z" fill="#504B43"/>
<path d="M33.0395 73.5853C33.6302 73.5623 34.0846 73.4932 34.4026 73.3781C34.732 73.2629 34.9592 73.096 35.0842 72.8772C35.2205 72.6699 35.2886 72.4051 35.2886 72.0827V62.8425H38.2533V72.0827C38.2533 73.0269 38.0602 73.8501 37.674 74.5525C37.2992 75.2549 36.7653 75.8076 36.0724 76.2106C35.3795 76.6136 34.5503 76.8439 33.5848 76.9014L33.0395 73.5853ZM36.771 60.9426C36.2939 60.9426 35.902 60.7872 35.5953 60.4763C35.2886 60.1654 35.1353 59.7682 35.1353 59.2846C35.1353 58.801 35.2886 58.4037 35.5953 58.0928C35.902 57.7819 36.2939 57.6265 36.771 57.6265C37.2594 57.6265 37.6513 57.7819 37.9466 58.0928C38.2533 58.4037 38.4067 58.801 38.4067 59.2846C38.4067 59.7682 38.2533 60.1654 37.9466 60.4763C37.6513 60.7872 37.2594 60.9426 36.771 60.9426Z" fill="#504B43"/>
</svg>
