<svg width="259" height="173" viewBox="0 0 259 173" fill="none" xmlns="http://www.w3.org/2000/svg">
<path d="M186.599 104.961C186.38 99.3295 184.52 83.6295 183.762 78.5575C182.754 78.6775 181.935 79.0015 180.819 79.8388C178.996 81.2068 177.714 82.6828 175.838 83.3361C176.858 89.5001 176.679 96.0788 176.843 102.301C176.96 106.777 177.087 111.252 177.21 115.727C180.211 114.296 184.795 111.301 186.538 111.116C186.628 109.025 186.671 106.856 186.599 104.961Z" fill="#827D83"/>
<path d="M199.051 103.31C199.03 101.93 198.959 100.562 198.866 99.1989C197.979 94.3722 196.91 88.5029 195.958 84.3829C195.475 82.2962 194.546 77.1882 194.511 77.0162C194.511 77.0162 194.25 76.7215 193.874 76.2962C192.279 77.1949 190.875 77.7935 189.354 78.1349C189.992 84.0135 192.036 92.4762 192.803 97.3069C193.163 99.5735 193.722 101.823 194.012 104.098C194.291 106.291 193.574 109.476 193.547 111.843C194.694 111.946 195.795 111.952 196.759 111.702C197.787 111.432 198.231 110.122 198.906 109.204C198.54 107.27 199.071 104.618 199.051 103.31Z" fill="#827D83"/>
<path d="M195.958 84.3829C197.004 88.9136 198.196 95.5776 199.128 100.622C199.634 98.0909 200.128 93.4016 199.758 89.0283C199.256 83.0976 198.236 76.4869 197.212 72.7709C195.508 73.1162 194.135 73.3256 193.319 73.2909C193.354 74.7829 192.934 75.6149 194.032 76.2096L193.874 76.2963C194.25 76.7216 194.511 77.0163 194.511 77.0163C194.546 77.1883 195.475 82.2963 195.958 84.3829Z" fill="#534F56"/>
<path d="M194.012 104.097C193.722 101.823 193.163 99.5734 192.803 97.3068C192.036 92.4761 189.992 84.0134 189.354 78.1348C188.219 78.3894 187.019 78.5094 185.612 78.4934C184.89 78.4841 184.3 78.4934 183.762 78.5574C184.52 83.6294 186.38 99.3294 186.599 104.961C186.671 106.856 186.628 109.025 186.538 111.116L186.64 111.1C188.695 111 191.223 111.633 193.547 111.843C193.574 109.476 194.291 106.291 194.012 104.097Z" fill="#656269"/>
<path d="M175.838 83.3362C175.074 83.6029 174.22 83.7469 173.178 83.6709C170.846 83.5002 165.791 82.4949 165.815 82.5936C166.196 84.2122 165.97 85.4896 164.548 85.9256C164.072 86.0709 163.462 86.1269 162.794 86.1482C164.758 93.5242 165.606 101.195 165.936 108.82C166.043 111.287 166.099 113.754 166.126 116.223C166.14 117.558 165.847 119.344 166.127 120.775C166.258 120.731 166.386 120.691 166.518 120.642C168.43 119.912 170.01 116.956 170.01 116.956C170.01 116.956 173.238 117.288 176.12 116.203C176.448 116.079 176.818 115.915 177.21 115.727C177.087 111.252 176.96 106.778 176.843 102.302C176.679 96.0789 176.858 89.5002 175.838 83.3362Z" fill="#656269"/>
<path d="M204.427 96.5908C204.563 93.6241 204.12 91.7828 206.586 92.5414C207.824 92.9228 207.28 88.9201 207.552 86.6961C207.794 84.7188 209.122 82.8081 209.058 80.8201C208.942 77.2281 208.755 73.6468 208.779 70.0535C204.612 71.0308 200.339 72.1361 197.212 72.7708C198.236 76.4868 199.256 83.0974 199.758 89.0281C200.128 93.4014 199.634 98.0908 199.128 100.621C199.043 100.164 198.955 99.6801 198.866 99.1988C198.959 100.561 199.03 101.929 199.051 103.309C199.071 104.617 198.54 107.269 198.906 109.204C199.19 108.817 199.511 108.493 199.94 108.359C201.379 107.905 202.816 107.429 204.259 106.955C204.194 103.644 204.291 99.5774 204.427 96.5908Z" fill="#656269"/>
<path d="M213.484 86.2562C213.312 81.6402 213.491 75.0589 213.116 69.0869C211.722 69.3749 210.256 69.7055 208.779 70.0535C208.755 73.6469 208.942 77.2282 209.058 80.8202C209.122 82.8082 207.794 84.7188 207.552 86.6962C207.28 88.9202 207.824 92.9228 206.586 92.5415C204.12 91.7828 204.563 93.6242 204.427 96.5908C204.291 99.5775 204.194 103.644 204.259 106.955C207.355 105.935 210.475 104.924 213.704 104.183C213.767 98.2055 213.707 92.2295 213.484 86.2562Z" fill="#534F56"/>
<path d="M193.319 73.2908C196.164 73.4108 205.646 70.6268 213.116 69.0868L213.111 68.9908C207.406 66.9308 201.824 64.5494 196.41 61.8121C194.594 60.8934 192.436 59.9788 190.807 58.6028C187.664 59.0321 184.554 57.4628 181.719 56.1721C178.814 54.8481 175.542 53.3681 172.479 55.1521C170.479 56.3161 169.131 58.2321 166.954 59.1441C164.199 60.2988 161.112 60.0054 158.532 61.6814C156.351 63.0988 154.768 65.4414 154.186 67.9708C153.043 72.9321 156.164 77.3281 160.494 79.0841C161.41 79.0308 164.732 82.1174 165.894 84.5308C166.026 83.9841 165.988 83.3268 165.815 82.5934C165.791 82.4948 170.844 83.5001 173.178 83.6708C176.783 83.9334 178.254 81.7641 180.819 79.8388C182.53 78.5534 183.535 78.4681 185.612 78.4934C188.97 78.5334 191.171 77.8454 194.032 76.2094C192.934 75.6148 193.354 74.7828 193.319 73.2908Z" fill="#949294"/>
<path d="M160.494 79.0841C156.164 77.3281 153.043 72.9321 154.186 67.9708C154.768 65.4414 156.351 63.0988 158.532 61.6814C161.112 60.0054 164.199 60.2988 166.954 59.1441C169.131 58.2321 170.479 56.3161 172.479 55.1521C175.542 53.3681 178.814 54.8481 181.719 56.1721C184.554 57.4628 187.664 59.0321 190.807 58.6028C190.347 58.2148 189.922 57.7975 189.567 57.3255C187.715 54.8601 190.099 52.3388 189.062 49.7908C187.81 46.7148 183.496 46.7668 180.766 46.8028C174.375 46.8854 167.98 47.2134 161.608 47.7041C149.256 48.6548 136.958 50.3161 124.797 52.6828C118.858 53.8388 112.923 55.1121 107.069 56.6454C104.447 57.3334 102.224 58.2574 100.739 60.0628C99.6863 64.1334 108.661 67.6534 111.348 68.9974C115.71 71.1801 120.238 73.0468 124.797 74.7734C133.271 77.9801 149.143 83.5054 157.778 86.2388C158.73 86.1081 159.854 86.1281 160.95 86.1481C162.327 86.1721 163.659 86.1974 164.548 85.9254C165.326 85.6868 165.735 85.1908 165.894 84.5308C164.732 82.1174 161.41 79.0308 160.494 79.0841Z" fill="#A19BA0"/>
<path d="M158.932 114.712C158.53 113.405 157.955 112.32 156.6 111.819C156.448 111.763 156.291 111.72 156.132 111.685C156.027 114.671 155.947 117.656 155.894 120.64C158.772 120.723 161.042 121.345 163.375 121.256C161.015 119.629 159.8 117.529 158.932 114.712Z" fill="#656269"/>
<path d="M155.818 120.641L155.894 120.64C155.947 117.656 156.027 114.671 156.132 111.685C154.915 111.417 153.539 111.757 152.487 112.355C151.835 112.724 151.331 113.213 150.838 113.772C149.568 115.212 148.731 115.369 146.846 115.191C140.643 114.603 134.479 113.456 128.467 111.827C125.507 111.024 122.572 110.115 119.686 109.072C116.802 108.031 113.78 106.779 112.443 103.808C112.18 103.223 111.987 100.621 111.353 102.796C110.248 106.584 108.054 106.607 105.52 106.212C104.694 106.083 103.866 105.993 103.036 105.919C109.573 108.289 118.137 111.336 123.582 113.207C132.3 116.201 146.528 120.343 155.818 120.641Z" fill="#656269"/>
<path d="M166.126 116.223C166.099 113.753 166.043 111.287 165.936 108.82C165.606 101.195 164.758 93.5241 162.794 86.1481C161.219 86.1974 159.286 86.0321 157.778 86.2388C149.143 83.5054 133.271 77.9801 124.797 74.7734C120.949 73.3161 117.129 71.7454 113.406 69.9828C113.205 70.5334 113.106 71.0548 113.275 71.4468C113.702 72.4374 113.938 74.4428 114.655 75.1094C115.158 75.5761 115.144 76.6161 114.388 76.1641C113.479 75.7041 113.029 76.3001 112.758 77.1628C112.368 78.4041 111.33 79.3201 110.556 80.4121C108.999 82.6121 108.675 84.7441 108.41 87.3761C107.983 91.6108 106.085 95.2721 104.087 98.9641C103.876 99.3534 103.343 99.2148 103.209 98.8494C101.934 95.3734 101.207 91.5561 101.513 87.9014C102.069 81.2828 100.347 75.9801 100.355 75.5614C100.358 75.3534 100.671 75.3041 100.721 75.5121L100.799 75.8681C102.298 72.5814 103.946 69.3788 105.733 66.2334L105.745 66.2134C102.83 64.5481 100.135 62.3974 100.739 60.0628C100.054 60.8948 99.5108 61.8974 99.1843 63.1828C97.5415 69.6454 97.0666 76.6174 96.0915 83.2134C95.3623 88.1508 94.4619 97.4948 93.903 102.476C93.5571 102.44 97.5952 103.945 103.036 105.919C103.866 105.993 104.694 106.083 105.52 106.212C108.054 106.607 110.248 106.584 111.353 102.796C111.987 100.621 112.18 103.223 112.443 103.808C113.78 106.779 116.802 108.031 119.686 109.072C122.572 110.115 125.507 111.024 128.467 111.827C134.479 113.456 140.643 114.603 146.846 115.191C148.731 115.369 149.568 115.212 150.838 113.772C151.331 113.213 151.835 112.724 152.487 112.355C153.539 111.757 154.915 111.417 156.132 111.685C156.291 111.72 156.448 111.763 156.6 111.819C157.955 112.32 158.53 113.405 158.932 114.712C159.8 117.529 161.015 119.629 163.375 121.256C164.271 121.223 165.175 121.092 166.127 120.775C165.847 119.344 166.14 117.557 166.126 116.223Z" fill="#827D83"/>
<path d="M100.355 75.5614C100.347 75.98 102.069 81.2827 101.513 87.9014C101.207 91.556 101.934 95.3734 103.209 98.8494C103.343 99.2147 103.877 99.3534 104.087 98.964C106.085 95.272 107.983 91.6107 108.41 87.376C108.675 84.744 108.999 82.612 110.556 80.412C111.33 79.32 112.368 78.404 112.758 77.1627C113.029 76.3 113.479 75.704 114.388 76.164C115.144 76.616 115.158 75.576 114.655 75.1094C113.938 74.4427 113.703 72.4374 113.275 71.4467C113.106 71.0547 113.205 70.5334 113.406 69.9827C112.719 69.6574 112.028 69.3374 111.348 68.9974C110.202 68.424 107.913 67.452 105.745 66.2134L105.733 66.2334C103.946 69.3787 100.358 75.3534 100.355 75.5614Z" fill="#656269"/>
<path d="M206.571 66.1121C202.414 64.4348 198.131 62.8441 194.283 60.5921C193.268 59.9988 190.631 58.0908 189.966 56.7001C189.488 55.7028 189.411 54.8294 189.583 53.7228C189.832 52.1188 189.899 50.3281 189.062 49.7908C189.343 51.9495 187.078 54.9508 186.398 56.2041C186.144 56.6721 186.288 57.7308 189.71 59.1134C192.224 60.1294 194.958 61.9761 195.766 62.3854C199.059 64.0508 202.454 65.0361 205.663 66.8854C206.628 67.4414 207.482 69.2201 204.936 69.8575C204.548 69.9548 202.49 70.5761 202.095 70.6428C199.692 70.8748 197.292 71.1494 194.907 71.2321C191.418 71.3521 192.572 69.0868 192.819 67.2974C190.228 67.7174 190.33 68.8054 190.251 69.9401C190.178 70.9908 190.812 72.1508 191.464 73.1934C192.436 74.7494 191.592 76.1134 190.703 76.5161C189.354 77.1268 185.492 76.9121 184.25 77.0254C181.207 77.3014 179.308 79.4628 177.799 81.0841C177.538 81.3428 177.287 81.6134 177.043 81.8974C176.594 82.2268 176.126 82.5174 175.643 82.7748C171.663 84.0868 160.302 78.3001 158.162 77.9761C159.86 78.9961 161.322 80.3001 162.794 81.3054C164.235 82.2894 163.656 83.2174 163.407 83.5294C162.07 85.2014 157.336 84.9828 155.398 84.6934C149.867 83.8694 144.612 81.8268 139.292 80.0561C128.783 76.5601 119.234 71.1828 109.157 66.5161C108.042 66.0001 104.831 63.8454 104.243 63.0761C103.001 61.4521 103.955 58.5174 106.005 56.9468C105.133 57.0228 103.548 57.6534 103.114 57.8828C102.107 58.4134 100.654 59.6561 100.535 60.3228C100.332 61.4601 101.164 62.8441 101.955 63.6868C102.09 63.8294 102.456 64.2254 102.702 64.5481C103.219 65.2201 103.17 66.3361 103.065 66.9934C102.662 69.5081 102.234 70.0761 101.367 72.6094C101.053 73.5241 100.355 75.5614 100.355 75.5614C103.381 73.3881 105.278 70.0988 106.015 67.9388C106.09 67.7188 106.445 66.8694 107.05 67.1294C110.874 68.7694 125.39 75.9921 133.491 79.0801C138.672 81.0548 143.931 82.8161 149.274 84.3028C152.964 85.3294 161.49 85.8961 163.126 90.2401C163.864 92.1988 164.604 96.5681 164.904 98.6134C165.64 103.629 165.403 109.184 166.096 114.187C166.722 109.204 166.798 102.907 166.022 97.7641C165.564 94.7388 164.96 92.3014 165.439 89.2321C165.666 87.7694 166.127 85.9588 166.19 84.1908C167.462 84.8081 173.587 84.9748 174.974 84.5148C176.255 84.2481 177.426 83.6694 178.367 82.6854C180.06 81.4868 181.84 79.1308 183.786 78.7188C185.271 78.4054 185.942 78.5561 187.35 78.6668C187.819 78.7041 189.746 78.7788 190.158 78.7534C191.732 78.6548 193.89 78.2374 194.511 77.0161C194.304 75.5481 193.35 74.2401 193.37 73.4921C193.999 73.4761 194.512 73.3308 195.832 73.1694C197.55 72.9601 199.958 72.4428 201.447 72.1694C205.306 71.4601 209.263 69.8281 213.116 69.0868C211.583 68.2188 207.024 66.2948 206.571 66.1121Z" fill="#BBB4B8"/>
<path d="M162.478 103.395C162.431 101.361 162.651 97.2294 160.72 96.4548C158.819 95.6934 159.68 93.5214 157.731 91.8361C156.372 90.6588 154.599 91.9601 154.199 91.2921C153.203 89.6281 152.052 88.3481 150.998 88.5508C150.495 92.7948 150.824 95.5214 153.059 99.1961C153.435 99.8134 154.903 100.643 155.286 101.256C155.846 102.153 155.014 103.973 156.648 104.789C158.675 105.8 159.544 105.975 159.635 108.14C159.739 110.652 160.178 114.187 162.794 114.187C163.232 114.187 161.899 111.685 162.332 109.204C162.803 106.515 162.539 106.116 162.478 103.395Z" fill="#656269"/>
<path d="M156.12 75.8987C154.774 74.2653 153.947 72.2374 153.948 70.024C153.948 69.3547 154.024 68.668 154.186 67.9707C154.768 65.4413 156.351 63.0987 158.532 61.6813C161.112 60.0053 164.199 60.2987 166.954 59.144C167.282 59.0067 167.591 58.8467 167.886 58.6707C168.896 58.7573 170.011 58.86 171.183 58.988C170.943 61.5934 170.167 64.2133 169.947 65.98C171.5 64.3347 173.818 61.7907 175.919 59.6133C182.552 60.6747 188.954 62.6293 187.446 66.38C186.182 69.5227 179.9 71.8387 176.239 72.968C170.794 74.6467 164.814 75.4133 158.998 75.7627C158.056 75.82 157.095 75.8653 156.12 75.8987Z" fill="#7D7A7F"/>
<path d="M152.21 75.9668C142.85 75.9668 132.66 74.8015 124.746 71.6068C124.849 70.9735 124.943 70.3841 125.028 69.8428C127.36 70.2388 129.75 70.5135 132.123 70.7921C134.979 71.1268 140.575 71.6655 147.234 71.7175C147.126 70.4095 147.006 69.1028 146.88 67.7961C147.358 63.9428 147.711 60.8721 147.155 59.1388C147.674 58.4241 148.322 57.7828 149.01 57.2015C154.082 57.4308 159.082 57.9148 163.703 58.3361C164.544 58.4135 166.039 58.5121 167.886 58.6708C167.591 58.8468 167.282 59.0068 166.954 59.1441C164.199 60.2988 161.112 60.0055 158.532 61.6815C156.351 63.0988 154.768 65.4415 154.186 67.9708C154.024 68.6681 153.948 69.3548 153.948 70.0241C153.947 72.2375 154.774 74.2655 156.12 75.8988C154.839 75.9428 153.534 75.9668 152.21 75.9668ZM142.679 58.8375C143.299 58.6615 143.91 58.4601 144.507 58.2375C144.538 58.3548 144.568 58.4788 144.602 58.6108C143.991 58.7268 143.352 58.8028 142.679 58.8375Z" fill="#847F85"/>
<path d="M167.312 47.4375C168.956 48.4255 169.966 50.1628 171.166 51.9375C177.984 62.0255 188.144 49.2922 194.382 43.4655C193.63 41.0282 192.284 38.8748 190.558 36.9522C185.982 34.9348 181.251 33.4002 176.102 33.0375C170.236 32.6228 168.118 40.8535 167.312 47.4375Z" fill="#A19BA0"/>
<path d="M140.115 37.9601C139.496 32.3881 137.879 26.3375 134.08 22.0508C131.248 18.8548 127.769 17.7282 124.069 17.6175C117.668 21.1282 109.136 28.5002 104.209 34.2375C103.228 35.3802 102.633 36.6935 102.313 38.0948C109.723 44.1801 117.503 49.6855 126.095 54.0348C129.714 55.8681 133.572 57.6015 137.596 58.4001C139.972 51.9095 140.884 44.8961 140.115 37.9601Z" fill="#A19BA0"/>
<path d="M171.226 25.1429C157.684 19.2962 143.283 14.9549 128.387 15.7909C127.142 16.0989 125.671 16.7402 124.069 17.6176C127.769 17.7282 131.248 18.8549 134.08 22.0509C137.879 26.3376 139.496 32.3882 140.115 37.9602C140.884 44.8962 139.972 51.9096 137.596 58.4002C138.735 58.6256 139.887 58.7816 141.052 58.8376C147.526 59.1509 151.056 55.8962 155.199 51.4682C157.651 48.8469 160.859 46.3202 164.686 46.6242C165.734 46.7069 166.584 47.0002 167.312 47.4376C168.118 40.8536 170.236 32.6229 176.102 33.0376C181.251 33.4002 185.982 34.9349 190.558 36.9522C185.643 31.4802 177.616 27.9029 171.226 25.1429Z" fill="#949294"/>
<path d="M145.739 58.3442C144.344 58.7362 142.81 58.9229 141.052 58.8375C135.774 58.5815 130.739 56.3868 126.095 54.0348C117.502 49.6855 109.723 44.1802 102.313 38.0948C101.601 41.2202 102.267 44.7828 103.108 47.8655C104.211 51.9028 105.484 55.9948 107.602 59.6322C112.833 68.6122 122.617 69.6762 132.123 70.7922C134.979 71.1269 140.575 71.6655 147.234 71.7175C147.047 69.4589 146.823 67.2002 146.603 64.9455C146.402 62.8949 146.58 60.2829 145.739 58.3442Z" fill="#827D83"/>
<path d="M154.967 57.3442C155.062 55.3962 155.146 53.3349 155.368 51.2909L155.199 51.4682C152.18 54.6949 149.482 57.2895 145.739 58.3442C146.58 60.2829 146.402 62.8949 146.603 64.9455C146.823 67.2002 147.047 69.4589 147.234 71.7176C149.768 71.7376 152.46 71.6815 155.211 71.5215L155.163 71.3349C154.198 66.8922 154.75 61.8389 154.967 57.3442Z" fill="#949294"/>
<path d="M194.382 43.4654C188.858 48.6254 180.259 59.1908 173.627 54.5348C173.214 55.7668 172.807 57.0001 172.392 58.2308C171.126 61.9961 170.051 65.9455 168.686 69.7241C173.728 68.5855 178.474 66.8654 182.322 64.3001C186.242 61.6868 193.426 57.0654 194.551 51.5481C194.666 51.4014 194.75 51.2374 194.78 51.0628C195.278 48.2588 195.083 45.7414 194.382 43.4654Z" fill="#656269"/>
<path d="M161.788 61.5402C161.888 59.4455 162.327 57.2402 162.219 55.1562C162.074 52.3042 160.976 51.2282 159.428 49.5055L159.35 49.5268C158.699 49.7135 158.3 49.1575 158.354 48.6455C157.266 49.4202 156.268 50.3455 155.368 51.2908C155.146 53.3348 155.062 55.3962 154.967 57.3442C154.75 61.8388 154.198 66.8921 155.163 71.3348L155.211 71.5215C157.282 71.4015 159.387 71.2162 161.488 70.9562C161.088 67.9655 161.663 64.2175 161.788 61.5402Z" fill="#827D83"/>
<path d="M170.923 53.7667C171.475 55.3107 171.922 57.0174 172.214 58.7854C172.274 58.6014 172.331 58.4134 172.392 58.2307C172.807 57 173.214 55.7667 173.627 54.5347C172.771 53.9334 171.946 53.0907 171.166 51.9374C169.435 49.3774 168.106 46.8947 164.686 46.6241C163.019 46.4921 161.471 46.8987 160.051 47.6147C165.292 46.2187 168.943 48.236 170.923 53.7667Z" fill="#827D83"/>
<path d="M172.214 58.7854C171.922 57.0174 171.475 55.3107 170.923 53.7667C168.943 48.236 165.292 46.2187 160.051 47.6147C159.463 47.9107 158.898 48.2587 158.354 48.6454C158.3 49.1574 158.699 49.7134 159.35 49.5267L159.428 49.5054C160.976 51.2281 162.074 52.3041 162.219 55.1561C162.327 57.2401 161.888 59.4454 161.788 61.5401C161.663 64.2174 161.088 67.9654 161.488 70.9561C163.911 70.6561 166.33 70.2561 168.686 69.7241C169.984 66.1294 171.026 62.3841 172.214 58.7854Z" fill="#827D83"/>
<path d="M183.731 50.6281C182.319 51.5815 180.972 52.6242 179.57 53.5882C177.235 55.1922 174.774 55.7188 173.247 52.9802C172.76 52.1068 171.414 48.2002 169.004 46.3535C167.839 45.4602 165.948 45.7468 164.523 45.9321C161.59 46.3121 158.91 47.8655 156.58 49.6015C155.186 50.6401 151.138 54.4868 147.006 55.8922C142.874 57.2975 138.663 56.7348 136.871 56.5108C133.172 56.0508 128.49 53.5815 124.592 51.4828C120.452 49.2535 117.409 46.4775 116.188 45.9268C113.997 44.9401 107.448 42.3388 104.503 39.3975C102.844 37.7415 103.747 34.8375 103.735 34.8495C101.592 37.1602 101.478 39.3708 104.459 42.0762C107.743 45.0548 112.061 46.6762 114.347 48.5495C115.702 49.6588 117.291 52.2442 119.634 53.1455C121.432 53.8375 124.57 53.6015 125.981 53.9668C126.33 54.2255 126.696 54.3668 127.142 54.4108C128.195 54.9802 129.345 55.6455 129.691 56.2628C129.976 56.7735 131.454 61.6842 132.208 63.7068C132.335 64.1268 132.478 64.5495 132.652 64.9788C133.011 65.8588 132.702 59.6655 132.708 58.6402C133.164 58.8788 133.732 59.0308 134.195 59.1535C137.607 60.0588 141.246 59.4481 144.507 58.2375C145.186 60.8841 146.875 67.8001 146.88 67.7961C147.358 63.9428 147.711 60.8721 147.155 59.1388C148.707 57.0028 151.398 55.5175 152.928 54.3508C155.739 52.2068 158.65 48.6535 164.019 48.9922C167.295 49.1988 170.419 52.3268 171.06 55.4628C171.782 58.9841 170.27 63.3962 169.947 65.9802C172.252 63.5388 176.234 59.1242 178.706 56.8548C181.84 53.9775 188.495 51.0841 191.359 46.4281C191.919 45.5188 185.302 49.4015 183.731 50.6281Z" fill="#BBB4B8"/>
<path d="M133.228 68.6735C132.025 68.1402 131.813 66.7655 130.601 66.3135C128.792 65.6389 126.891 65.5495 124.994 65.3402C123.225 65.1455 123.219 63.9842 122.709 63.1749C121.589 61.3949 120.234 59.3269 118.444 59.3215C117.782 59.3189 117.553 60.0989 117.944 60.5509C118.861 61.6149 120.49 64.8175 119.024 64.8069C118.297 64.8015 116.553 63.3962 115.91 63.2389C114.067 62.6495 110.914 62.3015 107.549 57.4722C106.573 56.0722 105.838 52.9589 104.295 51.9069C105.458 55.3962 106.205 57.5256 107.267 59.3589C107.56 60.0882 107.953 60.7735 108.565 61.3495C109.803 63.0229 111.696 64.7295 113.541 65.8775C117.891 68.5869 120.363 69.0815 121.529 69.4162C124.191 70.1802 137.154 71.4669 139.994 71.5122C139.322 69.9135 135.218 69.5549 133.228 68.6735Z" fill="#656269"/>
<path d="M171.226 25.1427C163.884 20.7174 154.003 17.3707 145.536 15.9694C141.506 15.3027 137.332 15.1414 133.262 15.4401C129.607 15.7081 124.576 15.6121 121.695 18.0121C119.88 19.5254 117.172 21.7307 115.012 23.9107C119.125 22.5707 120.225 21.1694 122.762 20.1747C124.043 20.2201 125.349 18.82 126.692 18.8934C129.346 19.0374 131.512 22.1827 133.219 23.9347C137.584 28.4161 139.871 34.7134 140.371 40.9387C141.799 37.8481 141.372 33.3507 140.728 30.0014C140.286 27.6961 139.422 24.7654 141.367 22.9267C142.294 22.0507 144.574 21.5561 145.812 21.3054C153.683 19.7107 167.468 26.1641 171.226 25.1427Z" fill="#BBB4B8"/>
<path d="M178.146 130.604C179.399 128.626 183.368 128.51 183.904 126.071C184.562 123.09 185.752 119.966 185.799 115.722C182.327 117.824 177.739 119.938 175.128 121.256C171.568 123.055 167.835 123.727 167.232 128.052C166.871 130.639 166.879 133.238 166.756 135.844C166.68 137.454 167.434 141.552 168.824 142.844L169.151 143.111C169.74 143.131 170.282 143.146 170.751 143.158C171.595 143.18 172.935 142.78 174.522 142.098C174.17 137.646 176.655 132.956 178.146 130.604Z" fill="#656269"/>
<path d="M188.708 132.093C191.852 127.872 191.767 119.097 190.914 113.92C190.783 113.128 190.578 112.433 190.324 111.815C189.89 112.959 188.086 114.337 185.799 115.721C185.752 119.965 184.562 123.089 183.904 126.071C183.368 128.509 179.399 128.625 178.146 130.604C176.655 132.956 174.17 137.645 174.522 142.097C179.246 140.063 186.163 135.511 188.708 132.093Z" fill="#534F56"/>
<path d="M185.863 107.323C182.1 105.582 177.186 105.285 172.882 105.372C170.97 105.335 169.05 105.447 167.204 105.579C161.266 106 152.127 108.241 146.392 109.837C143.818 112.431 143.528 120.768 143.868 123.748C144.007 124.968 144.218 126.103 144.482 127.172C144.954 126.423 145.476 125.691 145.582 124.851C145.244 122.49 145.659 121.448 146.432 122.495C147.83 124.382 147.227 125.76 150.096 126.572C151.45 126.956 151.076 129.752 151.284 130.135C152.774 132.877 153.255 130.936 154.263 131.956C156.978 134.703 158.967 133.483 162.288 134.603C163.411 134.981 164.886 137.103 166.82 137.163C166.763 136.646 166.739 136.187 166.756 135.844C166.879 133.238 166.871 130.639 167.232 128.052C167.835 123.727 171.568 123.055 175.128 121.256C179.458 119.07 189.228 114.696 190.324 111.815C189.143 108.928 186.879 107.794 185.863 107.323Z" fill="#827D83"/>
<path d="M154.263 131.956C153.255 130.936 152.774 132.877 151.284 130.135C151.076 129.752 151.45 126.956 150.096 126.572C147.227 125.76 147.83 124.382 146.432 122.495C145.659 121.448 145.244 122.49 145.582 124.851C145.476 125.691 144.954 126.423 144.482 127.172C148.039 141.616 162.275 142.878 169.151 143.111L168.824 142.844C167.73 141.828 167.032 139.075 166.82 137.163C164.886 137.103 163.411 134.981 162.288 134.603C158.967 133.483 156.978 134.703 154.263 131.956Z" fill="#656269"/>
<path d="M189.436 109.838C187.003 107.23 182.416 105.632 179.086 105.246C168.759 104.051 151.119 107.963 146.392 109.838C147.374 112.338 148.734 114.63 150.383 116.627C150.358 116.266 150.395 115.892 150.528 115.503C150.66 115.123 151.076 114.818 151.482 114.808C153.287 113.416 156.171 113.13 158.246 112.524C161.883 111.46 165.612 110.76 169.236 109.728C169.739 109.584 170.091 110.05 170.015 110.507C169.844 111.536 169.522 111.959 168.58 112.443C168.016 112.732 166.751 113.588 167.247 116.484C167.703 119.147 166.618 122.478 166.582 124.364C171.536 124.084 179.106 120.698 185.247 115.368C185.714 114.962 188.048 114.23 188.515 113.92C190.324 112.72 191.143 111.668 189.436 109.838Z" fill="#949294"/>
<path d="M167.247 116.484C166.751 113.588 168.016 112.732 168.58 112.443C169.522 111.959 169.844 111.536 170.015 110.507C170.091 110.049 169.739 109.584 169.236 109.728C165.612 110.76 161.883 111.46 158.246 112.524C156.171 113.129 153.287 113.416 151.482 114.808C151.076 114.817 150.66 115.123 150.528 115.503C150.395 115.892 150.358 116.265 150.383 116.627C154.255 121.316 159.748 124.345 165.851 124.391C166.086 124.392 166.334 124.379 166.582 124.364C166.618 122.477 167.703 119.147 167.247 116.484Z" fill="#A19BA0"/>
<path d="M183.012 115.575C179.203 118.872 173.342 121.356 171.968 122.055C168.383 123.882 165.367 124.174 162.978 123.103C159.282 121.448 156.47 121.394 155.256 120.124C153.851 118.656 151.644 114.652 151.008 113.838C150.308 112.939 148.48 111.03 146.392 109.838C147.244 111.883 147.699 115.722 153.822 120.842C154.716 121.59 156.246 123.13 157.299 123.174C157.86 123.347 161.459 123.692 162.722 124.254C163.559 124.627 164.692 125.015 165.388 126.652C166.342 128.895 165.895 131.468 165.859 132.479C165.726 136.359 165.35 139.65 168.075 141.807C167.064 139.482 167.535 133.047 167.998 128.523C168.162 126.91 168.916 124.766 169.899 124.788C174.762 124.903 176.56 122.274 178.918 120.374C182.414 117.554 183.136 119.546 185.3 117.59C186.003 116.954 186.532 115.53 187.191 115.243C189.383 114.292 190.31 113.63 190.39 111.623C188.804 113.755 185.784 113.175 183.012 115.575Z" fill="#BBB4B8"/>
<path d="M185.607 118.467C185.059 122.044 184.391 125.225 181.068 126.956C179.203 127.928 176.932 131.624 175.526 132.535C172.283 134.632 173.163 138.657 174.495 140.952C175.03 136.092 176.067 135.08 178.007 133.528C180.076 131.873 180.238 129.251 182.392 127.901C186.142 125.553 186.28 121.779 185.607 118.467Z" fill="#827D83"/>
<path d="M127.386 40.7854C126.814 35.1547 108.428 29.8907 102.062 28.1481C94.9416 26.1987 87.689 24.5707 80.3468 23.7347C73.2473 22.9267 66.0666 22.7907 58.9541 23.5241C52.2973 24.2107 44.1405 25.3601 38.2473 28.8041C36.1344 30.0387 34.7681 31.6494 34.0046 33.4294C38.4738 46.8614 54.252 51.468 67.2098 54.6614C79.8604 57.7774 93.4557 60.7721 106.018 56.8547C108.204 55.7587 114.876 53.2294 117.116 52.4081C118.923 56.8641 112.368 60.6707 110.331 61.9761C101.929 67.3587 101.424 78.1427 100.871 87.1641C100.513 92.9934 99.3437 98.6641 98.8905 104.469C98.5858 108.377 98.4614 112.307 98.3494 116.233C103.847 114.644 109.086 112.356 111.561 109.811C120.107 101.021 123.996 76.5587 125.22 68.6001C126.769 58.5267 128.416 50.9214 127.386 40.7854Z" fill="#656269"/>
<path d="M113.76 28.7601C112.192 28.0641 110.594 27.4681 108.979 26.9308C108.495 28.0388 107.53 28.9561 106.244 29.5481C99.2025 32.7935 89.7937 29.9615 82.665 28.6881C79.915 28.1961 69.3238 25.7708 67.0937 28.4495C64.8025 31.2001 69.2306 32.5775 70.7942 33.9015C71.991 34.9148 72.7541 35.7974 73.5744 37.1268C74.3322 38.3561 73.8598 40.1401 72.601 40.8388C67.5145 43.6655 62.6577 47.3695 57.1453 49.3175C56.4776 49.8628 55.7984 50.3908 55.1202 50.9241C66.3448 55.1388 79.1702 56.7868 90.3145 56.8614C98.1948 56.9134 106.654 56.3735 114.122 53.6361C119.154 51.7935 126.893 47.9121 127.483 41.8348C128.146 35.0095 118.897 31.0414 113.76 28.7601Z" fill="#949294"/>
<path d="M72.6011 40.8387C73.8599 40.1401 74.3322 38.356 73.5744 37.1267C72.7541 35.7974 71.991 34.9147 70.7942 33.9014C69.2306 32.5774 64.8025 31.2001 67.0937 28.4494C69.3239 25.7707 79.9151 28.1961 82.665 28.6881C89.7937 29.9614 99.2025 32.7934 106.244 29.5481C107.53 28.9561 108.495 28.0387 108.979 26.9307C103.255 25.0267 97.2755 24.0134 91.2833 23.2294C80.8307 21.86 70.1921 20.6494 59.6359 20.9707C52.9651 21.1734 40.5276 20.7374 37.3629 28.1174C37.2739 28.3241 37.2197 28.5294 37.1677 28.732C36.8202 29.2974 36.5192 29.9187 36.2828 30.6014C34.3238 36.2494 37.8306 41.2387 42.3177 44.3627C46.1577 47.0374 50.5072 49.1921 55.1203 50.9241C55.7984 50.3907 56.4776 49.8627 57.1453 49.3174C62.6577 47.3694 67.5145 43.6654 72.6011 40.8387Z" fill="#A19BA0"/>
<path d="M61.2864 56.9615C61.0791 55.6655 61.5848 54.0175 62.9724 53.5748C51.0052 50.3775 37.9963 45.4255 34.0047 33.4295C32.6348 36.6215 35.6479 45.8695 35.9624 47.0321C38.5348 56.5455 42.4396 65.9255 45.7219 75.0375C49.4307 85.3321 56.5005 99.5015 62.3052 108.973C65.0494 110.795 67.902 112.415 70.6839 113.781C69.1015 109.095 68.015 104.467 67.4853 100.831C65.6369 88.1335 63.3167 69.6321 61.2864 56.9615Z" fill="#827D83"/>
<path d="M117.116 52.4095C114.876 53.2295 108.204 55.7589 106.018 56.8549C94.1317 60.5615 81.3213 58.0802 69.2609 55.1615C70.1786 56.1362 70.8177 57.4762 71.1062 59.1429C72.2177 65.5602 71.1551 72.6842 71.8005 79.2335C72.8166 89.5389 74.9989 105.436 77.9535 116.823C81.3593 117.983 84.3374 118.583 86.4207 118.458C89.8057 118.256 94.1525 117.448 98.3494 116.234C98.4614 112.307 98.5858 108.378 98.8905 104.47C99.3437 98.6642 100.513 92.9935 100.871 87.1642C101.424 78.1429 101.929 67.3589 110.331 61.9762C112.368 60.6709 118.923 56.8642 117.116 52.4095Z" fill="#827D83"/>
<path d="M69.2609 55.1614C67.8515 53.6654 65.7791 53.0401 63.2615 53.4841L62.9724 53.5747C64.4047 53.9574 65.8249 54.32 67.2099 54.6614C67.8905 54.828 68.5749 54.9947 69.2609 55.1614Z" fill="#656269"/>
<path d="M71.1063 59.1428C70.8177 57.4761 70.1787 56.1361 69.2609 55.1614C68.5749 54.9947 67.8905 54.8281 67.2099 54.6614C65.8249 54.3201 64.4047 53.9574 62.9724 53.5748C61.5848 54.0174 61.0791 55.6654 61.2864 56.9614C63.3167 69.6321 65.6369 88.1334 67.4853 100.831C68.0151 104.467 69.1015 109.095 70.6839 113.781C73.2129 115.023 75.6776 116.047 77.9536 116.823C74.9989 105.436 72.8167 89.5388 71.8005 79.2334C71.1552 72.6841 72.2177 65.5601 71.1063 59.1428Z" fill="#656269"/>
<path d="M115.704 52.3374C111.573 57.1147 106.851 58.9761 100.49 58.8641C97.8266 58.8174 95.1078 58.6334 92.3875 58.4161L92.1916 58.1214C90.5682 55.8228 87.5916 56.2854 86.2094 57.9041C85.1958 57.8187 84.1807 57.7321 83.1812 57.6614C81.2099 57.5214 75.8244 59.8854 87.711 64.5521C92.3291 73.4534 93.7422 84.1734 93.3443 94.1481C93.0287 102.049 92.5448 109.711 93.3443 117.476C97.4735 116.936 100.188 115.824 102.807 114.76C102.915 107.507 101.523 100.512 102.133 93.2867C102.627 87.4494 103.501 81.6361 104.867 75.9374C105.715 72.4014 106.819 69.1454 108.195 64.4921C113.063 62.4294 116.658 58.7041 117.997 53.6721C118.333 52.4134 116.632 51.2627 115.704 52.3374Z" fill="#534F56"/>
<path d="M104.184 54.3254C97.5609 54.5414 73.1145 55.0401 68.7025 49.2654C66.5557 50.3387 60.751 51.7881 60.751 51.7881C60.751 51.7881 62.2145 48.9574 63.7765 46.5454C61.2396 46.7961 50.4036 45.9134 49.5457 45.5347C45.4421 43.7161 40.8312 41.6641 38.2041 38.0254C34.8853 33.4294 37.6942 28.6614 39.7661 26.7027C43.4396 23.2321 53.7234 22.4081 60.4577 20.9494C53.7234 20.8041 46.5885 20.5374 40.1562 23.4827C32.9588 26.7774 31.1905 37.0174 36.838 42.2227C40.1224 45.2494 45.8172 51.9827 57.9322 55.2041C58.0681 62.1761 59.5661 69.2894 61.7338 75.9334C62.2525 78.7721 64.2317 85.4721 65.4844 87.8521C66.0702 84.6361 64.7989 58.9761 64.8249 57.0387C68.852 58.7174 75.4468 59.7881 77.014 60.1147C84.0932 61.5947 92.0765 60.4721 99.1692 59.6081C108.534 58.4667 126.46 53.7294 127.483 41.8347C121.558 44.6627 114.978 53.9721 104.184 54.3254Z" fill="#BBB4B8"/>
<path d="M94.3291 86.3881C93.9457 82.4308 94.5609 80.3668 93.3443 76.5788C91.9072 72.1054 90.6796 68.3081 87.7109 64.5521C90.6203 71.9294 90.0296 76.7894 91.3187 84.6934C92.702 93.1761 91.3187 108.788 93.3443 115.117C94.0339 106.592 95.1489 94.8521 94.3291 86.3881Z" fill="#BBB4B8"/>
<path d="M6.5807 129.714C7.33486 130.222 8.80049 129.38 9.72914 127.25C14.0744 117.286 14.264 104.09 21.6719 96.1643C23.9645 93.7123 23.0588 96.5709 22.9219 97.6163C21.4896 108.55 24.7224 114.002 24.4781 123.734C24.4301 125.646 22.562 131.224 22.2937 133.524C21.8531 137.308 22.0635 141.02 21.3057 144.728L21.3719 144.794C21.7563 145.124 22.162 145.422 22.5833 145.696C23.1312 144.902 23.8129 143.628 24.7703 141.6C26.3391 138.279 28.7948 138.434 28.6047 139.215C28.5124 139.803 28.4031 140.402 28.2791 141C28.0219 142.891 27.9692 144.148 28.2219 146.06C28.9088 145.978 32.1791 146.502 32.9609 146.626C33.5541 146.719 35.8817 148.823 37.702 150.667C40.8681 151.564 44.0353 152.459 47.2088 153.33C46.7901 140.291 44.7812 127.362 41.0463 114.847C37.3896 102.592 30.3453 89.4896 32.2692 72.2803C26.4145 77.8896 15.4839 90.4189 10.5843 98.4229C4.61144 108.182 1.288 119.232 0.376529 130.603C0.318716 131.328 0.921329 131.979 1.57081 132.192C2.23486 130.906 2.99372 129.756 3.65622 129.078C4.37341 128.342 5.47601 128.97 6.5807 129.714Z" fill="#827D83"/>
<path d="M32.9609 146.625C32.179 146.501 28.9087 145.977 28.2218 146.06C27.9691 144.148 28.0218 142.891 28.279 141C28.403 140.401 28.5123 139.803 28.6046 139.215C28.7947 138.433 26.339 138.279 24.7702 141.6C23.8129 143.628 23.1311 144.901 22.5833 145.696C25.4546 147.563 29.0957 148.232 32.3197 149.141C34.1139 149.648 35.9077 150.157 37.7019 150.667C35.8817 148.823 33.5541 146.719 32.9609 146.625Z" fill="#656269"/>
<path d="M14.0979 136.408C17.4457 138.376 18.4828 142.253 21.3057 144.728C22.0635 141.02 21.8531 137.308 22.2937 133.524C22.562 131.224 24.4301 125.645 24.4781 123.733C24.7224 114.001 21.4896 108.549 22.9219 97.616C23.0588 96.5707 23.9645 93.712 21.6719 96.164C14.264 104.089 14.0744 117.285 9.72913 127.249C8.80048 129.38 7.33485 130.221 6.58069 129.713C5.476 128.969 4.3734 128.341 3.65621 129.077C2.99371 129.756 2.23485 130.905 1.5708 132.192L1.59684 132.204C5.63069 133.447 10.4343 134.253 14.0979 136.408Z" fill="#656269"/>
<path d="M61.1416 111.473C63.5286 109.732 66.0833 108.265 68.7494 107.007C71.9978 105.473 76.5134 102.863 78.9948 99.7241L78.7348 99.3908C69.103 91.5055 57.4848 83.6388 51.1885 79.8148C46.2536 76.8188 38.414 71.6308 32.4358 72.1175L32.2692 72.2801C30.3453 89.4895 37.3896 102.592 41.0462 114.847C42.9025 121.068 44.3306 127.391 45.351 133.779C47.588 129.016 50.4557 123.808 51.9562 121.42C54.3718 117.577 57.4697 114.153 61.1416 111.473Z" fill="#949294"/>
<path d="M60.0943 94.2335C58.0801 92.7535 54.9927 93.1149 53.0145 94.4415C52.5536 94.1349 49.552 92.5975 48.9047 92.5709C47.0421 92.4962 40.1421 94.3429 38.1885 91.7762C36.7729 89.9175 36.35 90.2522 36.6739 92.5615C37.3593 97.4482 38.8515 100.935 42.2681 104.48C43.0353 105.275 44.3353 104.267 45.3489 103.778C49.7563 101.652 55.0708 97.6935 60.3453 97.9175C62.0156 96.4682 60.7099 94.6869 60.0943 94.2335Z" fill="#827D83"/>
<path d="M90.3801 120.598C87.3552 113.686 83.8339 105.57 78.9948 99.7242C78.4323 100.436 77.7547 101.116 77.0208 101.767C77.1448 101.842 77.2552 101.946 77.3099 102.076C78.4801 104.871 80.5145 107.031 80.4333 110.218C80.3536 113.331 78.8077 116.175 77.826 119.052C77.2047 120.874 77.3115 122.748 76.9495 124.612C76.5672 126.578 75.8104 127.919 76.2063 130.014C76.7672 132.987 77.8473 137.519 79.2213 140.888C83.2839 139.454 87.2739 137.686 90.2869 134.724C94.6348 130.45 92.5219 125.491 90.3801 120.598Z" fill="#656269"/>
<path d="M63.8213 110.604C63.5036 110.586 63.2323 110.28 63.3197 109.998C62.5812 110.47 61.8515 110.956 61.1416 111.474C57.4697 114.154 54.3719 117.578 51.9563 121.42C50.4557 123.808 47.588 129.016 45.3511 133.779C46.3833 140.243 46.9979 146.772 47.2088 153.33H47.2099C51.8401 150.539 59.5697 147.612 66.3739 145.231C65.1844 140.774 65.2927 136.086 65.1765 131.416C65.0077 124.664 62.7255 117.346 63.8213 110.604Z" fill="#656269"/>
<path d="M77.0208 101.767C76.8265 101.652 76.5901 101.63 76.4104 101.839C74.7109 103.82 71.7661 104.506 69.5202 105.71C67.365 106.866 65.3713 108.25 63.4686 109.782L63.3197 109.998C65.0629 108.884 66.8765 107.891 68.7494 107.007C71.2609 105.822 74.5202 103.987 77.0208 101.767Z" fill="#534F56"/>
<path d="M76.9494 124.612C77.3114 122.748 77.2046 120.873 77.826 119.052C78.8077 116.175 80.3536 113.331 80.4333 110.217C80.5145 107.031 78.4801 104.871 77.3098 102.076C77.2552 101.945 77.1448 101.841 77.0208 101.767C74.5202 103.987 71.2609 105.821 68.7494 107.007C66.8765 107.891 65.0629 108.884 63.3197 109.997C63.2322 110.28 63.5036 110.585 63.8213 110.604C62.7254 117.345 65.0077 124.664 65.1765 131.416C65.2926 136.085 65.1844 140.773 66.3738 145.231C68.662 144.429 70.8453 143.689 72.7708 143.037C74.85 142.333 77.0457 141.656 79.2213 140.888C77.8473 137.519 76.7672 132.987 76.2062 130.013C75.8104 127.919 76.5672 126.577 76.9494 124.612Z" fill="#534F56"/>
<path d="M73.602 95.3254C70.9396 95.308 68.2968 94.9627 65.6443 95.2187C62.3135 95.5387 59.0604 96.528 55.9235 97.6627C53.2344 98.636 51.1214 100.431 48.5318 101.481C44.9902 102.917 41.4536 101.029 39.564 98.8134C37.4916 95.748 36.6484 88.8014 35.8047 84.6907C35.388 82.6614 31.9422 75.6774 32.4359 72.1174C30.7922 72.0854 19.7063 84.4014 17.6255 88.6494C20.9594 87.0521 25.173 79.0267 28.6714 84.16C30.813 87.3027 31.9667 93.3427 32.6438 96.5147C33.7302 101.609 35.7068 110.165 39.8599 116.06C41.7328 118.719 43.4 125.185 43.1787 127.201C42.6979 131.593 42.7454 135.009 46.2844 140.609C46.8848 137.12 48.4328 135.732 49.638 130.337C50.7438 125.388 54.4568 121.276 57.2031 117.248C61.1416 111.473 69.7875 107.669 74.6791 104.868C76.0526 104.083 78.8323 103.101 80.4354 101.58C78.2187 97.676 75.337 96.672 73.602 95.3254Z" fill="#A19BA0"/>
<path d="M60.6265 95.7282C57.9989 96.3948 50.7557 100.157 49.6677 100.701C45.9259 102.572 42.3593 101.235 40.8327 98.7548C38.5286 92.6388 37.7759 87.0175 35.2895 81.0415C35.0847 80.4708 34.5953 78.9695 34.3593 78.0802C34.1603 77.3282 34.5071 75.0628 35.2983 74.6655C38.2843 73.1682 46.1754 77.1215 48.1525 78.3108C53.0827 81.2748 65.939 91.4775 67.6723 92.9642C68.0697 93.3055 68.0234 94.3002 67.1519 94.5055C65.4166 94.9162 62.7447 95.4068 60.6265 95.7282ZM77.8817 98.0895C76.0415 96.6442 49.2505 76.8962 44.6967 75.0268C43.0838 74.3655 36.5707 70.3282 31.4571 72.2482C28.6901 73.2882 25.3457 78.0975 23.365 80.8695C25.0765 79.4535 29.0473 77.1402 31.0978 77.4615C33.1177 77.7775 34.0295 81.5282 34.9025 83.4122C36.4661 88.3322 37.1478 93.6308 39.015 98.4322C40.3962 101.984 43.4525 105.006 45.7759 106.882C46.3363 107.334 48.4327 109.127 47.8353 111.642C47.3795 113.558 47.3962 115.495 47.9655 117.535C48.1139 118.067 48.4306 117.756 48.6254 117.224C49.6853 114.332 49.7775 111.379 51.4103 108.574C51.5869 108.27 51.4957 107.807 51.1655 107.64C49.4781 106.787 51.2363 105.383 52.2177 104.459C53.4431 103.306 53.801 101.554 55.1801 100.596C56.8931 99.4082 61.715 97.1415 66.3738 98.0415C68.8686 98.5242 70.4775 97.5815 72.7243 98.2828C75.7363 99.2242 79.0655 101.26 80.4353 101.58C80.8415 101.287 78.3801 98.4815 77.8817 98.0895Z" fill="#BBB4B8"/>
<mask id="mask0_13_2249" style="mask-type:luminance" maskUnits="userSpaceOnUse" x="86" y="29" width="13" height="3">
<path d="M98.4333 31.0508C94.5623 31.0494 90.5134 30.2561 86.7885 29.4988C90.5129 30.2561 94.5629 31.0494 98.4333 31.0508Z" fill="white"/>
</mask>
<g mask="url(#mask0_13_2249)">
<path d="M86.7885 31.0508H98.4421V29.4987H86.7885V31.0508Z" fill="#656269"/>
</g>
<path d="M96.1833 48.7161C87.5858 48.7161 77.6577 47.1534 70.6093 42.7187C70.4177 42.5974 70.227 42.4694 70.0396 42.3334C70.8896 41.8187 71.7421 41.3161 72.601 40.8387C73.4468 40.3694 73.9374 39.4094 73.9385 38.4574C73.939 37.9934 73.8229 37.5307 73.5744 37.1267C72.7541 35.7974 71.991 34.9147 70.7942 33.9014C70.362 33.536 69.7109 33.1654 69.0437 32.764C69.8677 32.2214 70.8301 31.8334 71.8129 31.5401C75.7848 30.0014 80.1702 29.4587 84.6416 29.4587C85.3552 29.4587 86.0718 29.4734 86.7885 29.4987C90.5134 30.256 94.5624 31.0494 98.4333 31.0507C98.4353 31.0507 98.4374 31.0507 98.4396 31.0507C98.4405 31.0507 98.4416 31.0507 98.4421 31.0507C99.0754 31.0507 99.7036 31.0294 100.324 30.9827C101.217 31.1201 102.095 31.2574 102.958 31.3907C106.4 31.9214 123.77 33.6054 121.507 40.1507C120.434 43.2534 115.42 45.3774 112.502 46.3947C108.164 47.908 103.425 48.4934 98.8249 48.6667C97.962 48.6987 97.0801 48.7161 96.1833 48.7161Z" fill="#7D7A7F"/>
<path d="M70.0395 42.3335C67.7281 40.6562 65.8281 37.8415 67.0437 35.0442C67.4671 34.0695 68.179 33.3322 69.0437 32.7642C69.7109 33.1655 70.3619 33.5362 70.7942 33.9015C71.991 34.9148 72.7541 35.7975 73.5743 37.1268C73.8229 37.5308 73.939 37.9935 73.9385 38.4575C73.9374 39.4095 73.4467 40.3695 72.601 40.8388C71.7421 41.3162 70.8895 41.8188 70.0395 42.3335ZM98.4395 31.0508C98.4374 31.0508 98.4353 31.0508 98.4333 31.0508C94.5629 31.0495 90.5129 30.2562 86.7885 29.4988C91.3833 29.6642 96.0123 30.3215 100.324 30.9828C99.7035 31.0295 99.0754 31.0508 98.4421 31.0508C98.4415 31.0508 98.4405 31.0508 98.4395 31.0508Z" fill="#847F85"/>
<path d="M105.994 107.455C109.136 106.236 112.362 105.235 115.649 104.484C118.14 103.915 120.24 103.747 122.094 103.948C124.337 104.696 127.129 105.979 126.261 108.519C124.932 112.411 122.352 116.391 122.352 116.391C122.352 116.391 112.822 114.622 110.957 114.227C109.88 113.999 104.76 112.426 100.235 110.38C100.343 110.167 100.452 109.983 100.562 109.838C101.454 108.662 104.522 108.026 105.994 107.455Z" fill="#A19BA0"/>
<path d="M122.854 113.316C122.374 114.281 121.726 115.211 120.96 116.123C120.96 116.123 121.843 114.977 122.854 113.316Z" fill="#656269"/>
<path d="M123.53 121.264C122.727 119.497 120.582 117.052 119.618 115.875C120.384 114.961 122.374 114.281 122.854 113.316C123.68 111.959 124.59 110.264 125.188 108.513C126.056 105.973 124.337 104.696 122.094 103.948C124.399 104.199 126.311 105.032 128.011 106.523C130.99 108.539 133.315 111.717 135.184 115.139C133.211 117.101 130.082 118.867 127.702 119.823C126.519 120.299 124.835 121.429 123.53 121.264Z" fill="#949294"/>
<path d="M97.5036 124.408C97.291 124.34 97.9358 118.861 98.926 114.551L99.1724 114.588C102.049 115.653 104.763 117.096 107.531 118.419C110.027 119.611 113.243 120.552 115.397 122.267C117.559 123.985 118.98 128.1 118.803 131.075C118.66 131.068 118.499 131.077 118.363 131.064C111.581 130.396 103.972 126.467 97.5036 124.408Z" fill="#534F56"/>
<path d="M123.53 121.264C124.835 121.429 126.519 120.299 127.703 119.823C130.082 118.867 133.211 117.101 135.184 115.139C136.862 118.208 138.175 121.473 139.224 124.288C139.33 124.573 132.416 127.983 126.01 129.86C125.474 128.261 125.073 125.833 124.695 124.597C124.355 123.485 124.248 122.195 123.53 121.264Z" fill="#656269"/>
<path d="M118.74 115.712C120.032 115.952 120.96 116.123 120.96 116.123C121.924 117.301 122.727 119.497 123.53 121.264C122.115 119.431 120.878 117.139 120.438 116.685C120.185 116.425 119.549 116.077 118.74 115.712Z" fill="#656269"/>
<path d="M100.235 110.38C104.76 112.425 109.88 113.999 110.957 114.227C111.21 114.28 111.585 114.356 112.034 114.444C112.768 115.971 113.682 118.284 114.871 119.407C115.859 120.34 117.644 120.588 118.466 120.993C119.073 121.295 120.369 121.763 120.96 122.108C122.411 124.625 122.869 127.063 123.417 129.941C123.458 130.155 123.508 130.339 123.563 130.501C121.797 130.904 120.146 131.139 118.803 131.075C118.98 128.1 117.559 123.985 115.397 122.267C113.243 120.552 110.027 119.611 107.531 118.419C104.763 117.096 102.049 115.653 99.1723 114.588L98.9259 114.551C99.3191 112.84 99.7644 111.308 100.235 110.38Z" fill="#656269"/>
<path d="M111.86 114.075C111.353 113.077 116.046 114.493 118.74 115.712C116.711 115.335 113.778 114.785 112.034 114.444L111.86 114.075Z" fill="#534F56"/>
<path d="M120.96 122.108C120.369 121.763 119.073 121.295 118.466 120.993C117.644 120.588 115.859 120.34 114.871 119.407C113.682 118.284 112.768 115.971 112.034 114.444C113.778 114.785 116.711 115.335 118.74 115.712C119.549 116.077 120.185 116.425 120.438 116.685C120.878 117.139 122.114 119.431 123.53 121.264C124.248 122.195 124.355 123.485 124.695 124.597C125.073 125.833 125.474 128.261 126.01 129.86C125.179 130.104 124.36 130.32 123.563 130.501C123.508 130.339 123.458 130.155 123.417 129.941C122.869 127.063 122.411 124.625 120.96 122.108Z" fill="#534F56"/>
<path d="M100.876 110.664C105.43 111.089 110.229 112.829 114.329 113.873C117.893 114.78 120.96 114.356 123.511 111.521C124.569 110.347 125.687 107.444 124.389 105.143C126.334 105.389 125.646 109.413 125.204 110.492C124.808 111.46 124.568 112.533 123.905 113.316C122.941 114.551 122.855 115.899 122.854 115.909C122.745 118.288 123.905 119.336 123.53 121.264C121.043 118.26 120.093 116.687 116.321 115.599C113.729 114.849 106.644 113.016 106.239 112.891C104.765 112.453 102.323 111.732 100.876 110.664Z" fill="#BBB4B8"/>
<path d="M106.179 115.712C107.955 116.482 107.29 116.918 108.908 117.971C109.529 118.375 111.783 119.44 112.606 120.028C113.547 120.44 115.944 120.822 116.337 121.515C116.404 121.631 117.745 124.619 117.697 125.512C116.686 124.586 115.892 122.92 114.378 121.898C112.393 121.579 111.011 120.888 109.553 119.819C106.528 117.599 103.649 116.83 100.278 115.18C102.324 115.102 104.323 114.907 106.179 115.712Z" fill="#BBB4B8"/>
<path d="M127.579 145.227C125.895 140.557 123.432 135.48 120.121 131.737C118.978 130.445 117.69 129.243 116.315 128.109C115.963 128.247 115.615 128.345 115.254 128.397C114.465 128.655 113.696 128.972 112.923 129.284C112.77 129.345 112.63 129.323 112.513 129.257L112.381 129.329C112.001 129.467 111.667 129.115 111.644 128.767C111.601 128.112 111.855 127.529 111.981 126.899C112.099 126.307 112.171 125.657 112.14 125.029C109.653 123.368 107.057 121.873 104.585 120.493C99.8068 117.827 89.1276 111.976 83.2786 119.224C80.3281 126.485 82.4744 137.012 85.3754 142.977C89.7514 151.973 98.3729 158.973 108.151 161.279C115.298 160.449 120.89 158.721 124.441 156.404C128.487 153.764 129.151 149.587 127.579 145.227Z" fill="#949294"/>
<path d="M80.2281 145.991C82.9921 148.132 84.0957 151.762 86.7765 154.044C90.8218 157.491 93.6634 159.875 96.051 161.799C100.444 161.884 104.505 161.702 108.151 161.279C98.3729 158.974 89.7514 151.974 85.3754 142.978C82.4744 137.012 80.3281 126.486 83.2786 119.224C82.9344 119.651 82.6036 120.116 82.2948 120.638C76.9213 127.444 73.5473 135.459 71.8312 143.94C72.0718 143.844 72.3208 143.756 72.5994 143.695C75.1848 143.127 78.2276 144.44 80.2281 145.991Z" fill="#827D83"/>
<path d="M86.212 161.195C89.652 161.547 92.9322 161.737 96.051 161.799C93.6634 159.875 90.8218 157.491 86.7765 154.044C84.0957 151.761 82.9921 148.132 80.2281 145.991C78.2276 144.44 75.1848 143.127 72.5994 143.695C72.3208 143.756 72.0718 143.844 71.8312 143.94C71.1801 147.16 70.7598 150.445 70.5713 153.76C72.7812 155.348 80.7281 160.632 86.212 161.195Z" fill="#656269"/>
<path d="M110.053 124.81C108.272 122.407 104.41 121.023 101.745 119.971C97.9615 118.477 93.811 117.535 89.7271 117.72C88.1984 117.788 83.4891 120.344 84.114 121.31C81.5744 126.591 84.4755 128.291 86.7354 134.869C88.7906 140.852 91.8791 145.342 97.0088 140.926C99.7026 138.606 105.185 133.511 108.229 131.744C112.513 129.258 111.841 127.22 110.053 124.81Z" fill="#A19BA0"/>
<path d="M122.925 135.483C121.271 132.316 118.647 129.524 115.833 127.185C115.119 127.637 112.904 128.541 112.904 128.541C112.904 128.541 112.984 125.64 112.813 124.88C108.837 122.14 104.664 120.047 103.318 119.432C98.8786 117.407 93.2697 113.951 88.2718 115.389C86.7723 115.821 84.6666 117.065 83.6166 117.92C81.6275 119.54 74.3967 131.705 73.7639 136.636C75.3456 133.377 79.1822 127.313 80.4978 128.857C81.5379 130.077 82.479 136.459 83.2082 138.645C86.2316 147.708 96.0243 160.109 106.531 160.851C104.586 160.24 98.9405 156.884 98.4139 156.561C92.6467 153.021 88.5207 146.353 86.2677 139.703C84.6697 134.987 83.0967 128.335 85.5863 123.637C87.4067 120.203 90.6567 118.712 94.0754 118.947C98.1249 119.224 104.74 122.681 107.112 123.703C109.621 124.781 111.485 125.391 110.533 128.691C110.284 129.555 108.727 131.039 108.229 131.744C110.147 131.796 113.257 130.177 115.254 129.897C115.77 130.565 120.316 135.637 122.925 135.483Z" fill="#BBB4B8"/>
<path d="M77.879 38.32C78.477 37.7254 79.0557 35.504 79.7281 34.86C81.0999 33.548 80.6067 35.4947 80.7223 36.4827C80.8858 37.8774 80.6295 38.8867 81.3978 39.8707C81.6254 40.1614 82.4713 39.512 83.4853 40.6454C85.0306 42.3734 86.3483 43.568 91.9962 44.0374C90.9421 41.8494 90.3202 39.5187 90.2822 37.0374C90.2431 34.5214 91.239 32.4747 92.8926 30.9347C99.0363 25.2147 106.597 21.164 113.567 16.4787C112.747 13.8054 111.947 11.7587 111.279 11.092C107.474 7.29471 102.622 4.19338 98.0947 1.35871C90.4634 3.04138 83.1519 7.69204 79.8177 10.556C78.3483 11.8174 74.8071 16.2814 74.8071 16.2814C74.8071 16.2814 73.651 28.8987 73.7327 33.536C73.7478 34.388 73.6885 35.7134 73.7177 36.7147C75.0655 37.308 77.6317 38.5654 77.879 38.32Z" fill="#827D83"/>
<path d="M108.297 7.48413C105.577 5.4548 100.971 1.40279 97.7994 0.208122C97.6265 0.233456 97.4437 0.268124 97.2546 0.308125C97.2514 0.444122 97.1765 0.573463 96.9999 0.613461C95.6514 0.89613 94.2718 1.31747 92.9145 1.85747C91.5681 2.46414 90.1462 3.1868 88.753 3.9548C87.9718 4.4388 87.2191 4.95746 86.5155 5.51613L86.4223 5.84413C86.0806 6.13346 85.739 6.39079 85.3734 6.60412C85.0947 6.82279 84.8202 7.04812 84.5437 7.27612C84.2983 7.47612 83.9947 7.31213 83.9431 7.08013L83.7879 6.95747C82.339 7.92414 81.1661 8.80814 80.503 9.45347C78.8817 11.0295 76.2686 12.9721 74.8071 16.2815C78.0629 22.6121 84.8254 31.1988 90.3666 35.6721C93.6379 33.3695 107.513 22.1988 113.567 16.4788C112.71 13.1508 111.828 10.1215 108.297 7.48413Z" fill="#949294"/>
<path d="M103.677 6.51081C101.71 4.31081 99.2052 1.78682 96.2776 0.788155C92.8735 1.61882 90.7015 5.97616 91.8057 7.42549C93.3817 9.49349 91.6568 10.6975 91.5156 12.0775C91.4104 13.1135 92.0796 14.5348 92.7645 15.0868C93.2771 15.4988 93.8604 15.7628 94.4577 16.0295C96.0901 16.7601 96.8672 17.3575 97.4536 19.1028C98.2536 21.4828 98.8787 23.9295 99.4468 26.3735C99.5041 26.6201 99.8271 26.7548 100.041 26.6148C103.213 24.5428 106.765 22.1188 107.807 18.2455C108.982 13.8735 106.487 9.65481 103.677 6.51081Z" fill="#A19BA0"/>
<path d="M96.0551 32.9655C95.8765 32.7362 95.2114 31.0802 94.6879 29.3642C94.0816 29.8789 93.4748 30.3935 92.8926 30.9349C91.239 32.4749 90.2431 34.5215 90.2822 37.0375C90.3202 39.5189 90.942 41.8495 91.9962 44.0375C86.3483 43.5682 85.0306 42.3735 83.4852 40.6455C82.4712 39.5122 81.6254 40.1615 81.3978 39.8709C80.6295 38.8869 80.8858 37.8775 80.7223 36.4829C80.6067 35.4949 81.0999 33.5482 79.7281 34.8602C79.0557 35.5042 78.477 37.7255 77.879 38.3202C77.6316 38.5655 75.0655 37.3082 73.7177 36.7149C73.7363 37.3349 73.789 37.8309 73.9155 38.0082C80.0462 46.6042 89.8363 47.4495 99.3666 45.1135C98.8571 43.5762 98.203 41.1402 98.1571 38.6175C98.1092 35.9749 96.8405 33.9762 96.0551 32.9655Z" fill="#656269"/>
<path d="M111.249 23.2894C109.398 25.8827 109.158 29.328 108.834 32.504C108.601 34.792 108.549 38.7627 108.754 41.8467C112.299 40.268 115.596 38.432 118.393 36.616C117.816 33.848 115.625 23.1867 113.567 16.4787C113.021 16.8453 112.467 17.204 111.915 17.564C112.079 19.684 112.059 22.156 111.249 23.2894Z" fill="#656269"/>
<path d="M108.834 32.5042C109.158 29.3282 109.398 25.8829 111.249 23.2895C112.059 22.1562 112.079 19.6842 111.915 17.5642C106.085 21.3668 99.9755 24.8788 94.688 29.3642C95.2115 31.0802 95.8765 32.7362 96.0552 32.9655C96.8405 33.9762 98.1093 35.9749 98.1572 38.6175C98.2031 41.1402 98.8572 43.5762 99.3667 45.1135C102.577 44.3269 105.754 43.1829 108.754 41.8469C108.549 38.7629 108.601 34.7922 108.834 32.5042Z" fill="#534F56"/>
<path d="M109.072 7.69333C105.718 5.11999 101.731 1.69733 97.889 -3.8147e-06C96.1896 0.207996 91.6489 1.25333 90.5754 1.93333C86.5557 4.476 82.1416 6.78801 79.291 10.576C82.0541 8.76667 84.8478 8.41599 86.9744 6.396C88.7634 4.696 93.3624 1.49469 96.0557 1.65469C97.6374 3.02135 100.01 5.89733 101.736 7.06667C102.828 9.08 105.162 11.62 105.27 13.956C105.403 16.844 105.586 19.5573 103.481 21.828C100.994 24.5107 95.9744 26.636 93.4161 28.5827C91.2401 30.2387 89.2869 31.4293 87.377 30.372C84.65 28.864 82.1514 24.536 81.6514 23.9307C82.5905 22.9467 83.9514 21.272 85.301 20.744C83.2744 20.9893 81.8697 21.0573 80.2645 22.276C78.6686 21.3347 79.0568 20.0387 76.0582 18.5373C76.0817 19.7933 80.302 24.5547 84.112 29.88C85.6202 31.9893 88.0364 33.5653 88.6296 35.672C89.4796 38.692 90.6598 40.172 90.8238 40.896C91.7853 40.3933 92.2129 39.3427 92.253 38.2894C92.3 37.0454 93.1338 37.0613 93.6385 36.3667C94.177 35.6253 94.0192 35.0827 94.1874 34.4427C94.2817 34.084 94.9572 32.7494 95.3541 32.356C97.5864 30.1427 103.264 27.264 104.553 26.2C107.767 23.544 112.06 20.6213 113.567 16.4787C114.127 14.94 111.988 9.93066 109.072 7.69333Z" fill="#BBB4B8"/>
<path d="M250.096 99.6802C246.954 98.4615 243.728 97.4602 240.442 96.7095C237.951 96.1402 235.85 95.9722 233.996 96.1735C231.752 96.9215 228.962 98.2042 229.828 100.744C231.158 104.636 233.738 108.616 233.738 108.616C233.738 108.616 243.268 106.847 245.134 106.452C246.21 106.224 251.33 104.651 255.855 102.606C255.747 102.392 255.638 102.208 255.528 102.063C254.636 100.887 251.568 100.251 250.096 99.6802Z" fill="#A19BA0"/>
<path d="M233.236 105.541C233.716 106.507 234.364 107.436 235.131 108.348C235.131 108.348 234.248 107.203 233.236 105.541Z" fill="#656269"/>
<path d="M232.56 113.489C233.363 111.723 235.508 109.279 236.472 108.1C235.707 107.188 233.716 106.507 233.236 105.541C232.41 104.184 231.499 102.489 230.902 100.739C230.035 98.1988 231.752 96.9215 233.996 96.1735C231.691 96.4242 229.779 97.2575 228.079 98.7482C225.1 100.764 222.775 103.943 220.906 107.364C222.879 109.327 226.008 111.092 228.387 112.048C229.571 112.524 231.255 113.655 232.56 113.489Z" fill="#827D83"/>
<path d="M258.587 116.634C258.799 116.566 258.155 111.087 257.164 106.776L256.918 106.814C254.042 107.879 251.327 109.323 248.559 110.644C246.063 111.836 242.848 112.778 240.694 114.492C238.531 116.211 237.11 120.326 237.287 123.302C237.431 123.294 237.591 123.303 237.727 123.29C244.51 122.622 252.118 118.692 258.587 116.634Z" fill="#534F56"/>
<path d="M232.56 113.489C231.255 113.655 229.571 112.524 228.387 112.048C226.008 111.092 222.879 109.327 220.906 107.364C219.228 110.435 217.915 113.699 216.867 116.513C216.76 116.799 223.674 120.208 230.08 122.085C230.615 120.487 231.018 118.059 231.395 116.823C231.735 115.711 231.842 114.42 232.56 113.489Z" fill="#656269"/>
<path d="M237.35 107.937C236.059 108.177 235.131 108.348 235.131 108.348C234.167 109.527 233.363 111.723 232.56 113.49C233.975 111.656 235.212 109.364 235.652 108.911C235.904 108.651 236.542 108.303 237.35 107.937Z" fill="#656269"/>
<path d="M255.855 102.605C251.33 104.651 246.21 106.224 245.134 106.452C244.88 106.505 244.504 106.581 244.056 106.669C243.322 108.196 242.408 110.511 241.22 111.632C240.231 112.565 238.446 112.813 237.624 113.22C237.016 113.52 235.72 113.988 235.131 114.333C233.679 116.851 233.222 119.288 232.672 122.167C232.632 122.38 232.583 122.564 232.527 122.727C234.294 123.129 235.944 123.364 237.287 123.301C237.11 120.325 238.531 116.211 240.694 114.492C242.848 112.777 246.063 111.836 248.559 110.644C251.327 109.323 254.042 107.879 256.918 106.813L257.164 106.776C256.771 105.065 256.326 103.533 255.855 102.605Z" fill="#656269"/>
<path d="M244.231 106.3C244.736 105.304 240.044 106.719 237.35 107.938C239.379 107.56 242.312 107.011 244.056 106.669L244.231 106.3Z" fill="#534F56"/>
<path d="M235.131 114.333C235.72 113.988 237.016 113.52 237.624 113.22C238.446 112.813 240.231 112.565 241.22 111.632C242.408 110.511 243.322 108.196 244.056 106.669C242.312 107.011 239.379 107.56 237.35 107.937C236.542 108.303 235.904 108.651 235.652 108.911C235.212 109.364 233.975 111.656 232.56 113.489C231.842 114.42 231.735 115.711 231.395 116.823C231.018 118.059 230.615 120.487 230.08 122.085C230.911 122.329 231.73 122.545 232.527 122.727C232.583 122.564 232.632 122.38 232.672 122.167C233.222 119.288 233.679 116.851 235.131 114.333Z" fill="#534F56"/>
<path d="M255.214 102.89C250.66 103.315 245.862 105.055 241.762 106.099C238.198 107.006 235.131 106.582 232.579 103.747C231.522 102.572 230.403 99.6695 231.702 97.3682C229.756 97.6148 230.444 101.639 230.886 102.719C231.282 103.685 231.522 104.759 232.184 105.542C233.148 106.776 233.236 108.124 233.236 108.135C233.346 110.515 232.184 111.562 232.56 113.49C235.047 110.487 235.998 108.912 239.768 107.824C242.362 107.076 249.447 105.242 249.852 105.116C251.326 104.679 253.767 103.958 255.214 102.89Z" fill="#BBB4B8"/>
<path d="M249.911 107.938C248.136 108.707 248.8 109.143 247.182 110.196C246.562 110.6 244.307 111.666 243.484 112.254C242.543 112.666 240.147 113.047 239.752 113.74C239.687 113.856 238.346 116.844 238.394 117.738C239.403 116.811 240.198 115.146 241.712 114.123C243.698 113.804 245.079 113.114 246.538 112.044C249.563 109.824 252.442 109.055 255.812 107.406C253.766 107.327 251.767 107.132 249.911 107.938Z" fill="#BBB4B8"/>
<path d="M63.1437 150.627C64.2343 151.404 67.4238 151.604 68.5713 152.277C70.4415 153.375 70.3457 155.596 72.1494 158.347C75.0207 162.727 77.3833 162.9 84.1317 161.241C81.8942 158.107 78.6655 155.905 76.1833 153.324C73.7853 150.831 70.9041 146.785 67.1505 146.763C65.8707 146.756 64.6869 146.464 63.4046 147.017C62.6369 147.349 61.9795 147.869 61.3853 148.461L61.403 148.629C61.6161 149.504 62.4623 150.141 63.1437 150.627Z" fill="#A19BA0"/>
<path d="M79.1541 163.879C80.7525 163.564 82.751 163.155 84.1317 163.951C85.2514 164.595 85.6301 168.18 85.7656 169.264C85.7942 169.492 85.8109 169.733 85.8254 169.973C86.1448 169.884 86.4468 169.82 86.7692 169.727C86.7984 166.119 85.7093 163.451 84.1317 161.241C77.3833 162.9 75.0208 162.727 72.1494 158.347C70.3457 155.596 70.4416 153.375 68.5713 152.277C67.4238 151.604 64.2344 151.404 63.1437 150.627C62.4624 150.141 61.6161 149.504 61.403 148.629L61.3853 148.461C60.6864 149.16 60.0786 149.964 59.5344 150.748C58.7364 151.896 57.9448 153.192 57.2172 154.555C58.8306 155.029 61.752 156.552 63.0109 157.624C65.312 159.584 69.2161 161.325 69.579 164.369C69.8234 166.423 70.2864 169.055 70.0238 172.341C70.6666 172.357 71.3426 172.307 72.002 172.288C72.0744 170.772 73.5916 169.199 75.114 166.803C75.9296 165.517 77.6973 164.164 79.1541 163.879Z" fill="#827D83"/>
<path d="M85.7656 169.264C85.6301 168.18 85.2514 164.595 84.1317 163.951C82.751 163.155 80.7525 163.564 79.1541 163.879C77.6973 164.164 75.9296 165.517 75.114 166.803C73.5916 169.199 72.0744 170.772 72.002 172.288C76.2421 172.169 80.8296 171.367 85.8254 169.973C85.8109 169.733 85.7942 169.492 85.7656 169.264Z" fill="#534F56"/>
<path d="M66.0827 162.209C68.191 162.613 68.7666 162.68 69.5915 164.468L69.579 164.369C69.216 161.325 65.3119 159.584 63.0108 157.624C61.7519 156.552 58.8306 155.029 57.2171 154.555C55.6499 157.489 54.4071 160.772 54.2395 163.815C55.3666 164.913 56.8546 166.384 58.4983 167.785C58.6108 166.785 59.3395 162.565 60.2806 161.769C61.7478 160.528 64.5972 161.925 66.0827 162.209Z" fill="#656269"/>
<path d="M69.5916 164.468C68.7667 162.68 68.1911 162.614 66.0828 162.21C64.5973 161.926 61.7479 160.528 60.2807 161.77C59.3396 162.566 58.6109 166.786 58.4984 167.786C60.8145 169.759 63.4495 171.587 65.8984 171.983C67.1615 172.187 68.4682 172.288 69.8041 172.33L70.0239 172.342C70.0729 171.727 70.1957 171.176 70.2005 170.607C70.2197 168.178 69.7916 166.12 69.5916 164.468Z" fill="#534F56"/>
<path d="M82.1735 161.695C81.0364 161.6 78.9353 161.719 77.8124 161.528C74.9932 161.051 74.412 159.627 74.2348 159.401C72.712 157.459 72.2405 157.006 71.1505 154.891C70.7943 154.2 70.6844 152.416 69.9661 152.095C69.726 151.987 68.1552 151.348 67.5844 151.071C67.0249 150.774 65.3229 150.758 64.3848 150.078C63.4901 149.427 63.3453 148.11 63.3703 147.891C63.4296 147.375 65.1859 146.691 65.0615 146.68C63.376 146.534 62.5853 147.092 61.2088 148.643C60.7063 149.21 63.15 150.948 63.214 150.962C64.5344 151.812 67.5593 152.184 68.2099 153.069C69.0005 154.144 68.3957 156.05 67.976 157.248C67.126 159.674 67.3255 162.827 67.4291 163.139C67.95 164.7 68.7339 164.119 69.0167 164.363C69.6932 164.944 69.2339 167.619 70.1244 168.628C70.2463 167.502 69.8229 163.658 71.0463 162.21C71.4063 161.784 72.2187 161.987 74.6115 162.21C76.6859 162.404 77.7599 163.191 82.1735 161.695Z" fill="#BBB4B8"/>
<path d="M142.854 150.332C143.047 150.315 142.958 149.308 143.154 149.228C143.864 148.939 144.308 148.875 145.079 148.68C146.402 148.346 148.047 148.682 149.39 148.632C151.415 148.559 153.41 148.226 155.386 147.792C154.444 147.874 154.174 147.374 154.299 147.182C153.443 145.175 153.059 144.107 150.823 144.064C147.956 144.008 145.128 145.067 142.539 146.179C141.959 146.428 141.016 146.738 140.176 147.182C140.043 147.67 139.83 148.22 139.778 148.567C139.622 149.614 141.967 150.41 142.854 150.332Z" fill="#827D83"/>
<path d="M138.414 149.365C138.447 150.887 140.586 151.68 141.703 152.113C144.288 153.117 146.966 153.019 149.656 153.061C151.206 153.085 153.467 153.147 154.823 152.239C156.127 151.367 156.42 149.484 155.582 148.136C153.606 148.569 151.415 148.559 149.39 148.632C148.047 148.681 146.402 148.345 145.079 148.68C144.308 148.875 143.864 148.939 143.154 149.228C142.958 149.308 143.047 150.315 142.854 150.332C141.967 150.409 139.622 149.613 139.778 148.567C139.83 148.22 140.043 147.669 140.176 147.181C139.216 147.688 138.391 148.371 138.414 149.365Z" fill="#656269"/>
<path d="M153.739 145.915C151.932 146.37 150.078 147.64 148.214 147.752C147.272 147.808 145.594 147.527 144.779 148.042C144.72 148.079 144.174 148.936 143.154 149.228C144.306 150.151 146.922 149.276 148.34 149.228C149.218 149.199 150.202 149.478 151.507 149.332C152.939 149.174 154.692 148.574 155.582 148.136C155.408 147.61 154.602 147.464 154.299 147.182C154.174 146.832 153.972 146.288 153.739 145.915Z" fill="#949294"/>
<path d="M153.219 145.055C151.708 143.006 147.706 144.115 146.514 144.479C144.896 144.971 142.604 145.782 141.198 146.712C140.487 147.182 142.038 146.667 142.236 146.618C143.879 146.204 146.288 145.155 147.959 144.816C148.944 144.616 152.598 145.426 153.219 145.055Z" fill="#BBB4B8"/>
</svg>
