<svg width="1728" height="1119" viewBox="0 0 1728 1119" fill="none" xmlns="http://www.w3.org/2000/svg">
<path fill-rule="evenodd" clip-rule="evenodd" d="M118.878 128.238V2.04272H119.878V128.238H268.101V2.04272H269.101V128.238H417.324V2.04272H418.324V128.238H566.546V2.04272H567.546V128.238H715.769V2.04272H716.769V128.238H864.991V2.04272H865.991V128.238H1014.21V2.04272H1015.21V128.238H1163.44V2.04272H1164.44V128.238H1312.66V2.04272H1313.66V128.238H1461.88V2.04272H1462.88V128.238H1611.11V2.04272H1612.11V128.238H1728V129.238H1612.11V273.865H1728V274.865H1612.11V419.492H1728V420.492H1612.11V565.118H1728V566.118H1612.11V710.745H1728V711.745H1612.11V856.372H1728V857.372H1612.11V1004.91H1728V1005.91H1612.11V1119H1611.11V1005.91L1462.88 1005.91V1119H1461.88V1005.91H1313.66V1119H1312.66V1005.91L1164.44 1005.91V1119H1163.44V1005.91H1015.21V1119H1014.21V1005.91H865.991V1119H864.991V1005.91H716.769V1119H715.769V1005.91H567.546V1119H566.546V1005.91H418.324V1119H417.324V1005.91L269.101 1005.91V1119H268.101V1005.91L119.878 1005.91V1119H118.878V1005.91H6.763e-08L0 1004.91H118.878V857.372H6.763e-08L0 856.372H118.878V711.745H6.763e-08L0 710.745H118.878V566.118H6.763e-08L0 565.118H118.878V420.492H6.763e-08L0 419.492H118.878V274.865H6.763e-08L0 273.865H118.878V129.238H6.763e-08L0 128.238H118.878ZM1611.11 1004.91L1462.88 1004.91V857.372L1611.11 857.372V1004.91ZM1611.11 856.372L1462.88 856.372V711.745L1611.11 711.745V856.372ZM1611.11 710.745L1462.88 710.745V566.118H1611.11V710.745ZM1611.11 565.118H1462.88V420.492H1611.11V565.118ZM1611.11 419.492H1462.88V274.865H1611.11V419.492ZM1611.11 273.865H1462.88V129.238H1611.11V273.865ZM1163.44 129.238H1015.21V273.865H1163.44V129.238ZM1014.21 129.238V273.865H865.991V129.238H1014.21ZM1163.44 274.865H1015.21V419.492H1163.44V274.865ZM1014.21 274.865V419.492H865.991V274.865H1014.21ZM1163.44 420.492H1015.21V565.118H1163.44V420.492ZM1014.21 420.492V565.118H865.991V420.492H1014.21ZM1163.44 566.118H1015.21V710.745H1163.44V566.118ZM1014.21 566.118V710.745H865.991V566.118H1014.21ZM1163.44 711.745H1015.21V856.372H1163.44V711.745ZM1014.21 711.745V856.372H865.991V711.745H1014.21ZM1163.44 857.372H1015.21V1004.91H1163.44V857.372ZM1014.21 857.372V1004.91H865.991V857.372H1014.21ZM1461.88 1004.91H1313.66V857.372H1461.88V1004.91ZM1461.88 856.372H1313.66V711.745H1461.88V856.372ZM1461.88 710.745H1313.66V566.118H1461.88V710.745ZM1461.88 565.118H1313.66V420.492H1461.88V565.118ZM1461.88 419.492H1313.66V274.865H1461.88V419.492ZM1461.88 273.865H1313.66V129.238H1461.88V273.865ZM864.991 129.238V273.865H716.769V129.238H864.991ZM864.991 274.865V419.492H716.769V274.865H864.991ZM864.991 420.492V565.118H716.769V420.492H864.991ZM864.991 566.118V710.745H716.769V566.118H864.991ZM864.991 711.745V856.372H716.769V711.745H864.991ZM864.991 857.372V1004.91H716.769V857.372H864.991ZM1312.66 1004.91L1164.44 1004.91V857.372H1312.66V1004.91ZM1312.66 856.372H1164.44V711.745H1312.66V856.372ZM1312.66 710.745H1164.44V566.118H1312.66V710.745ZM1312.66 565.118H1164.44V420.492H1312.66V565.118ZM1312.66 419.492H1164.44V274.865H1312.66V419.492ZM1312.66 273.865H1164.44V129.238H1312.66V273.865ZM715.769 129.238V273.865H567.546V129.238H715.769ZM715.769 274.865V419.492H567.546V274.865H715.769ZM715.769 420.492V565.118H567.546V420.492H715.769ZM715.769 566.118V710.745H567.546V566.118H715.769ZM715.769 711.745V856.372H567.546V711.745H715.769ZM715.769 857.372V1004.91H567.546V857.372H715.769ZM566.546 273.865V129.238H418.324V273.865H566.546ZM566.546 419.492V274.865H418.324V419.492H566.546ZM566.546 565.118V420.492H418.324V565.118H566.546ZM566.546 710.745V566.118H418.324V710.745H566.546ZM566.546 856.372V711.745H418.324V856.372H566.546ZM566.546 1004.91V857.372H418.324V1004.91H566.546ZM417.324 1004.91L269.101 1004.91V857.372H417.324V1004.91ZM417.324 856.372H269.101V711.745H417.324V856.372ZM417.324 710.745H269.101V566.118H417.324V710.745ZM417.324 565.118H269.101V420.492H417.324V565.118ZM417.324 419.492H269.101V274.865H417.324V419.492ZM417.324 273.865H269.101V129.238H417.324V273.865ZM268.101 273.865V129.238H119.878V273.865H268.101ZM268.101 419.492V274.865H119.878V419.492H268.101ZM268.101 565.118V420.492H119.878V565.118H268.101ZM268.101 710.745V566.118H119.878V710.745H268.101ZM268.101 856.372V711.745H119.878V856.372H268.101ZM268.101 1004.91V857.372H119.878V1004.91L268.101 1004.91ZM6.763e-08 1.08655H1728V0.0865479H0L6.763e-08 1.08655Z" fill="url(#paint0_linear_13_2058)" fill-opacity="0.2"/>
<defs>
<linearGradient id="paint0_linear_13_2058" x1="872.953" y1="998.233" x2="863.022" y2="-1.37354" gradientUnits="userSpaceOnUse">
<stop stop-opacity="0"/>
<stop offset="1" stop-opacity="0.52"/>
</linearGradient>
</defs>
</svg>
